<svg viewBox="0 0 19.3368 24" xmlns="http://www.w3.org/2000/svg" xmlns:xlink="http://www.w3.org/1999/xlink" width="19.336826" height="24.000000" fill="none" customFrame="rgba(255, 255, 255, 1)">
	<path id="Vector 1" d="M9.58342 0L9.36841 0.215C7.18342 2.4 5.13841 6.39 3.71442 10.483C2.65041 11.507 0.0814152 13.293 0.00341511 14.034C-0.0895848 14.904 1.74942 16.645 1.55342 17.269C1.35542 17.894 0.249415 18.677 0.539415 19.208C0.639415 19.396 1.36241 19.219 1.81641 18.717C1.75366 19.4287 1.74797 20.1444 1.79941 20.857C1.87541 21.763 2.06941 22.525 2.44241 23.089C2.81441 23.652 3.39841 24 4.10942 24C4.50641 24 4.83642 23.886 5.13342 23.736C5.43142 23.587 5.70442 23.406 6.04342 23.236C6.72342 22.896 7.67741 22.57 9.57341 22.632C11.4764 22.694 12.4454 23.022 13.1324 23.336C13.8194 23.65 14.2824 24 15.0574 24C15.8244 24 16.4524 23.664 16.8644 23.1C17.2764 22.537 17.4954 21.77 17.5844 20.86C17.6444 20.237 17.6394 19.54 17.5844 18.794C18.0384 19.244 18.7014 19.398 18.7974 19.218C19.0874 18.688 17.9814 17.904 17.7844 17.281C17.5864 16.657 19.4264 14.915 19.3334 14.045C19.2534 13.297 16.6264 11.477 15.5854 10.459C14.0964 6.374 11.9764 2.394 9.79842 0.215L9.58342 0ZM9.75842 6.038C10.2746 6.03922 10.7813 6.17584 11.2282 6.43422C11.675 6.69259 12.0462 7.06367 12.3047 7.5104C12.5632 7.95712 12.7 8.46386 12.7014 8.98C12.7002 9.49625 12.5635 10.0031 12.305 10.45C12.0466 10.8969 11.6753 11.2681 11.2284 11.5266C10.7816 11.7851 10.2747 11.9218 9.75842 11.923C9.24228 11.9216 8.73554 11.7848 8.28881 11.5263C7.84208 11.2678 7.471 10.8966 7.21263 10.4497C6.95426 10.0029 6.81764 9.49614 6.81641 8.98C6.81781 8.46397 6.95454 7.95734 7.21296 7.51068C7.47138 7.06402 7.84244 6.69296 8.2891 6.43455C8.73576 6.17613 9.24239 6.0394 9.75842 6.038L9.75842 6.038ZM6.35342 7.983C6.25746 8.30665 6.20862 8.64243 6.20842 8.98C6.20842 10.931 7.80842 12.53 9.75842 12.53C11.7084 12.53 13.3084 10.932 13.3084 8.98C13.3084 8.651 13.2624 8.332 13.1764 8.029C13.5104 8.124 13.8164 8.237 14.0914 8.365C14.9119 10.2562 15.5943 12.2043 16.1334 14.194C16.8114 16.739 17.1434 19.114 16.9794 20.801C16.8974 21.645 16.6894 22.311 16.3734 22.741C16.0584 23.172 15.6604 23.392 15.0584 23.392C14.4654 23.392 14.1264 23.122 13.3854 22.782C12.6444 22.444 11.5604 22.088 9.59341 22.024C7.61941 21.96 6.52041 22.317 5.77241 22.693C5.39741 22.881 5.11341 23.066 4.86141 23.193C4.60941 23.32 4.39541 23.393 4.10941 23.393C3.57941 23.393 3.23341 23.184 2.94941 22.753C2.66441 22.323 2.47541 21.652 2.40441 20.805C2.26341 19.112 2.58041 16.736 3.22741 14.191C3.73491 12.2201 4.38119 10.2877 5.16141 8.408C5.50941 8.241 5.91041 8.098 6.35341 7.983L6.35342 7.983ZM2.97142 12.345C2.99403 12.3432 3.0168 12.3449 3.03887 12.3502C3.06095 12.3555 3.08205 12.3642 3.10142 12.376C2.93542 12.936 2.77842 13.492 2.63842 14.041C2.42327 14.8853 2.2408 15.7376 2.09142 16.596C2.03211 16.4624 1.96534 16.3321 1.89142 16.206C1.31142 15.194 0.977416 14.564 0.731416 14.126C1.04642 13.886 2.41042 12.371 2.97142 12.345L2.97142 12.345ZM16.3654 12.355C16.9274 12.382 18.2914 13.898 18.6054 14.138C18.3594 14.576 18.0254 15.206 17.4454 16.218C17.387 16.3188 17.3327 16.4219 17.2824 16.527C17.1279 15.6899 16.9404 14.8593 16.7204 14.037C16.5714 13.483 16.4107 12.9322 16.2384 12.385C16.2766 12.3621 16.321 12.3517 16.3654 12.355L16.3654 12.355Z" fill="rgba(0, 0, 0, 1)" fill-rule="nonzero" />
</svg>
