<svg viewBox="0 0 45 45" xmlns="http://www.w3.org/2000/svg" xmlns:xlink="http://www.w3.org/1999/xlink" width="45.000000" height="45.000000" fill="none" customFrame="#000000">
	<path id="Vector 11" d="M7.5 16C11.0898 16 14 18.9102 14 22.5C14 26.0898 11.0898 29 7.5 29C3.91016 29 1 26.0898 1 22.5C1 18.9102 3.91016 16 7.5 16ZM37.5 1C41.0898 1 44 3.91016 44 7.5C44 11.0898 41.0898 14 37.5 14C33.9102 14 31 11.0898 31 7.5C31 3.91016 33.9102 1 37.5 1ZM37.5 16C41.0898 16 44 18.9102 44 22.5C44 26.0898 41.0898 29 37.5 29C33.9102 29 31 26.0898 31 22.5C31 18.9102 33.9102 16 37.5 16ZM37.5 31C41.0898 31 44 33.9102 44 37.5C44 41.0898 41.0898 44 37.5 44C33.9102 44 31 41.0898 31 37.5C31 33.9102 33.9102 31 37.5 31ZM31.0195 23.0078L13 23M32 10.9657L14 23.0077M32 34.0343L13.9877 23" fill-rule="evenodd" stroke="rgb(0,0,0)" stroke-width="2" />
</svg>
