<svg viewBox="0 0 48 48" xmlns="http://www.w3.org/2000/svg" xmlns:xlink="http://www.w3.org/1999/xlink" width="48.000000" height="48.000000" fill="none" customFrame="#000000">
	<path id="Vector 11" d="M7.95349 17.0465C11.7938 17.0465 14.907 20.1597 14.907 24C14.907 27.8403 11.7938 30.9535 7.95349 30.9535C4.11319 30.9535 1 27.8403 1 24C1 20.1597 4.11319 17.0465 7.95349 17.0465ZM40.0465 1C43.8868 1 47 4.11319 47 7.95349C47 11.7938 43.8868 14.907 40.0465 14.907C36.2062 14.907 33.093 11.7938 33.093 7.95349C33.093 4.11319 36.2062 1 40.0465 1ZM40.0465 17.0465C43.8868 17.0465 47 20.1597 47 24C47 27.8403 43.8868 30.9535 40.0465 30.9535C36.2062 30.9535 33.093 27.8403 33.093 24C33.093 20.1597 36.2062 17.0465 40.0465 17.0465ZM40.0465 33.093C43.8868 33.093 47 36.2062 47 40.0465C47 43.8868 43.8868 47 40.0465 47C36.2062 47 33.093 43.8868 33.093 40.0465C33.093 36.2062 36.2062 33.093 40.0465 33.093ZM33.1139 24.5432L13.8372 24.5349M34.1628 11.661L14.907 24.5432M34.1628 36.3391L14.8939 24.5349" fill-rule="evenodd" stroke="rgb(0,0,0)" stroke-width="2" />
</svg>
