<svg viewBox="0 0 18 24" xmlns="http://www.w3.org/2000/svg" xmlns:xlink="http://www.w3.org/1999/xlink" width="18.000000" height="24.000002" fill="none" customFrame="#000000">
	<path id="Vector 10" d="M11.4422 0C11.4422 0 13.9777 2.49487 9.03673 6.33005C5.97276 8.7097 7.10702 10.2982 8.19603 11.8233C8.51536 12.2705 8.8308 12.7123 9.03536 13.1669C6.72215 11.1148 5.02541 9.30809 6.16354 7.62671C6.71959 6.80574 7.60316 6.12542 8.4971 5.43713C10.29 4.05662 12.1247 2.64401 11.4422 0ZM10.1344 11.4753C11.3124 12.8087 9.82546 14.0075 9.82546 14.0075C9.82546 14.0075 12.8148 12.4903 11.4422 10.5896C11.3871 10.5135 11.3326 10.439 11.2791 10.366C10.087 8.73825 9.40528 7.80744 14.4992 4.90227L14.4983 4.90248C14.4016 4.92661 6.16779 6.9803 10.1344 11.4753ZM15.1864 13.299C16.6644 12.9962 18.7819 15.2444 14.2026 17.5837C14.1813 17.6395 14.1111 17.702 14.1111 17.7023C20.2258 16.1215 17.9777 12.1304 15.0541 13.1408C14.7976 13.23 14.663 13.4374 14.663 13.4374C14.663 13.4374 14.8251 13.373 15.1864 13.299ZM4.67485 14.623C1.80988 14.2463 6.24547 13.2102 6.24547 13.2102C6.24233 13.21 4.52061 13.0965 2.40465 14.1029C-0.10056 15.2942 8.60052 15.8369 13.1057 14.6716C13.5742 14.3574 14.221 14.0846 14.221 14.0846C14.221 14.0846 12.3786 14.4086 10.5426 14.5603C8.2955 14.7456 5.88473 14.7822 4.67485 14.623ZM5.76449 16.8567C4.16688 16.6941 5.21253 15.9329 5.21253 15.9329C1.0798 17.2818 7.51323 18.8123 13.2893 17.1511C12.6756 16.9385 12.2859 16.5491 12.2859 16.5491C9.46179 17.0836 7.83056 17.0665 5.76449 16.8567ZM6.46093 19.2736C4.8647 19.0936 5.79675 18.5602 5.79675 18.5602C2.04411 19.5912 8.07965 21.7209 12.858 19.7079C12.0755 19.4087 11.5142 19.0636 11.5142 19.0636C9.38338 19.4597 8.39503 19.4908 6.46093 19.2736ZM15.6936 21.4958C17.1438 21.0634 16.4538 20.5039 16.4538 20.5039C18.9801 21.625 10.9646 23.877 1.22351 22.3243C-2.34866 21.7542 2.94214 19.7667 3.91055 20.4372C3.91055 20.4372 3.60476 20.4164 3.06923 20.5304C2.55559 20.6394 0.922992 21.156 1.79326 21.5287C4.21537 22.5648 12.9364 22.3172 15.6936 21.4958ZM18 21.7259C17.8403 23.7709 11.0901 24.201 6.69556 23.9247C3.80732 23.7421 3.2452 23.2845 3.2452 23.2843C5.98894 23.7298 10.6165 23.8107 14.3678 23.1162C17.6928 22.5012 18 21.7259 18 21.7259Z" fill="rgb(0,0,0)" fill-rule="evenodd" />
</svg>
