<svg viewBox="0 0 50 50" xmlns="http://www.w3.org/2000/svg" xmlns:xlink="http://www.w3.org/1999/xlink" width="50.000000" height="50.000000" fill="none" customFrame="#000000">
	<rect id="Frame 1" width="50.000000" height="50.000000" x="0.000000" y="0.000000" />
	<rect id="Rectangle 1" width="50.000000" height="50.000000" x="0.000000" y="0.000000" />
	<path id="Vector 10" d="M29.8844 0C29.8844 0 34.9555 5.19765 25.0735 13.1876C18.9455 18.1452 21.214 21.4545 23.3921 24.6318C24.0307 25.5635 24.6616 26.4839 25.0707 27.4311C20.4443 23.1559 17.0508 19.3919 19.3271 15.889C20.4392 14.1786 22.2063 12.7613 23.9942 11.3273C27.5801 8.4513 31.2494 5.50835 29.8844 0ZM27.2688 23.907C29.6248 26.6848 26.6509 29.1823 26.6509 29.1823C26.6509 29.1823 32.6296 26.0215 29.8844 22.0616C29.7743 21.9031 29.6653 21.748 29.5583 21.5958C27.174 18.2047 25.8106 16.2655 35.9984 10.2131L35.9967 10.2135C35.8031 10.2638 19.3356 14.5423 27.2688 23.907ZM37.3729 27.7063C40.3288 27.0754 44.5638 31.7591 35.4052 36.6327C35.3625 36.7489 35.2222 36.8791 35.2222 36.8799C47.4516 33.5865 42.9554 25.2717 37.1082 27.3766C36.5951 27.5625 36.3261 27.9947 36.3261 27.9947C36.3261 27.9947 36.6503 27.8605 37.3729 27.7063ZM16.3497 30.4645C10.6198 29.6798 19.4909 27.5212 19.4909 27.5212C19.4815 27.5206 16.0393 27.2854 11.8093 29.381C6.79888 31.8629 24.201 32.9936 33.2114 30.5659C34.1484 29.9113 35.4419 29.343 35.4419 29.343C35.4419 29.343 31.7571 30.0179 28.0853 30.3339C23.591 30.7201 18.7695 30.7962 16.3497 30.4645ZM18.529 35.1182C15.3338 34.7793 17.4251 33.1935 17.4251 33.1935C9.1596 36.0038 22.0265 39.1923 33.5786 35.7315C32.3511 35.2884 31.5718 34.4773 31.5718 34.4773C25.9236 35.5909 22.6611 35.5552 18.529 35.1182ZM19.9219 40.1532C16.7294 39.7783 18.5935 38.6672 18.5935 38.6672C11.0882 40.815 23.1593 45.2519 32.716 41.0581C31.151 40.4348 30.0283 39.7158 30.0283 39.7158C25.7668 40.541 23.7901 40.6059 19.9219 40.1532ZM38.3873 44.7829C41.2876 43.882 39.9076 42.7164 39.9076 42.7164C44.9603 45.0521 28.9291 49.7438 9.44702 46.5089C2.30268 45.3212 12.8843 41.1807 14.8211 42.5774C14.8211 42.5774 14.2095 42.5341 13.1385 42.7717C12.1112 42.9988 8.84598 44.0751 10.5865 44.8514C15.4307 47.01 32.8728 46.4941 38.3873 44.7829ZM43 45.2624C42.6805 49.5227 29.1802 50.4188 20.3911 49.8432C14.6146 49.4626 13.4904 48.5093 13.4904 48.5089C18.9779 49.437 28.2331 49.6056 35.7356 48.1588C42.3857 46.8774 43 45.2624 43 45.2624Z" fill="rgba(0, 0, 0, 1)" fill-rule="evenodd" />
</svg>
