<svg viewBox="0 0 17.9431 24.0002" xmlns="http://www.w3.org/2000/svg" xmlns:xlink="http://www.w3.org/1999/xlink" width="17.943125" height="24.000240" fill="none" customFrame="#000000">
	<path id="Vector 2" d="M1.2083 0.00123976C0.896304 -0.0117602 0.543304 0.0732397 0.380304 0.45824C0.222304 0.83224 0.0973041 1.64624 0.0403042 2.73424L1.2633 3.32524C1.2433 2.58824 1.2703 1.89524 1.3393 1.25924C1.3133 1.55824 1.2833 2.21924 1.3453 3.29824C1.3643 3.64024 1.3943 4.02324 1.4333 4.44824C1.4353 4.47224 1.4353 4.49524 1.4403 4.51724C1.52179 5.32385 1.62482 6.12813 1.7493 6.92924C1.8063 7.29724 1.8753 7.68124 1.9443 8.08924L1.9343 8.09924C1.9483 8.10924 1.9493 8.11724 1.9483 8.12224L1.9783 8.28224C2.0083 8.44424 2.0383 8.61024 2.0713 8.77624L2.1793 9.32924L2.2353 9.61824C2.3758 10.3101 2.52815 10.9996 2.6923 11.6862C2.7823 12.0682 2.8783 12.4662 2.9793 12.8722C3.0773 13.2582 3.1783 13.6552 3.2883 14.0652C3.3843 14.4272 3.4873 14.8002 3.5913 15.1822C3.5943 15.2002 3.6033 15.2182 3.6063 15.2372C3.71796 15.6327 3.8313 16.0277 3.9463 16.4222L3.9953 16.5962C4.0733 16.8572 4.1533 17.1292 4.2373 17.4012C4.13794 17.36 4.04021 17.315 3.9443 17.2662L3.7543 16.6122C3.7343 16.5352 3.7123 16.4642 3.6923 16.3872L3.6903 16.3832L3.6863 16.3812C3.5993 16.0812 3.5163 15.7742 3.4293 15.4652C3.4063 15.3782 3.3853 15.2922 3.3603 15.2022L3.0463 14.0242C2.9463 13.6432 2.8523 13.2592 2.7563 12.8702C2.6623 12.4802 2.5713 12.0902 2.4793 11.6982C2.3863 11.2972 2.2983 10.8982 2.2143 10.4952C2.1293 10.0992 2.0533 9.69724 1.9743 9.30224C1.89937 8.91308 1.82903 8.52306 1.7633 8.13224C1.7593 8.11924 1.7573 8.10224 1.7533 8.09124L1.7573 8.08924C1.7003 7.70324 1.6413 7.31924 1.5833 6.93924C1.52798 6.53842 1.47664 6.13707 1.4293 5.73524C1.33662 4.93482 1.27923 4.13071 1.2573 3.32524L0.0373049 2.73524C0.0333049 2.80924 0.0273049 2.88524 0.0243049 2.96524C0.0123048 3.25924 0.00430489 3.57024 0.00130486 3.89524C-0.00162292 4.28091 0.000375986 4.66661 0.00730491 5.05224C0.016305 5.42224 0.032305 5.80724 0.052305 6.20024C0.072305 6.53624 0.094305 6.87524 0.122305 7.22224L0.124305 7.26124L0.130305 7.26524C0.133305 7.28824 0.137305 7.31524 0.136305 7.34124C0.169305 7.70924 0.200305 8.08024 0.243305 8.45624C0.322237 9.16754 0.423285 9.87622 0.546305 10.5812C0.556305 10.6452 0.570305 10.7122 0.581305 10.7762C0.724137 11.5584 0.906706 12.3327 1.12831 13.0962C1.19831 13.3332 1.26831 13.5602 1.33831 13.7762C1.40131 13.9582 1.46831 14.1412 1.53231 14.3212C1.68731 14.7432 1.85931 15.1532 2.04431 15.5532L2.05031 15.5572C2.05555 15.5744 2.06224 15.5912 2.07031 15.6072C2.29531 16.0922 2.54531 16.5572 2.82531 17.0022C2.83531 17.0152 2.84531 17.0352 2.85531 17.0492C2.40031 16.8662 1.59631 16.9512 1.60231 16.9522C2.43231 17.2402 3.15931 17.5922 3.61831 18.1272C3.43531 18.3272 3.09531 18.4792 2.66531 18.6042C3.25931 18.6682 3.58931 18.5652 3.71031 18.5122C3.40031 18.7722 3.22731 19.2442 3.07531 19.7522C3.42531 19.1822 3.77131 18.8032 4.1083 18.6582C4.18631 18.9162 4.27031 19.1822 4.35231 19.4462C3.58495 20.9514 2.84351 22.4696 2.1283 24.0002C2.22021 23.9879 2.30761 23.9529 2.38266 23.8985C2.45771 23.844 2.51806 23.7718 2.5583 23.6882C2.6883 23.4062 3.3883 21.9132 4.4663 19.8132C4.8793 21.1162 5.3463 22.4922 5.8523 23.9222C5.9027 23.8572 5.93604 23.7806 5.94931 23.6994C5.96259 23.6182 5.95536 23.5349 5.9283 23.4572C5.46599 22.1511 5.02991 20.8358 4.6203 19.5122C4.7743 19.2132 4.9363 18.9002 5.1043 18.5802C5.2293 18.6202 5.3593 18.6742 5.4933 18.7352C5.6963 18.9212 5.8453 19.2262 5.9753 19.5752C5.99361 19.3793 5.97357 19.1817 5.9163 18.9934C5.85903 18.8051 5.76562 18.6298 5.6413 18.4772C6.9763 18.7352 8.1883 18.5672 8.9283 17.6672C8.99576 17.5839 9.05981 17.4978 9.1203 17.4092C8.7953 17.7132 8.4383 17.8132 7.8073 17.6822C8.8033 17.4012 9.3303 17.0652 9.8423 16.4622C9.9623 16.3172 10.0863 16.1592 10.2133 15.9822C9.2703 16.7042 8.2863 16.8042 7.3133 16.4752L7.2683 16.4572C8.1823 16.4772 9.4713 15.9832 10.3603 15.2682C10.7703 14.9382 11.1563 14.5382 11.5303 14.0582C11.8103 13.6992 12.0803 13.2982 12.3503 12.8422C12.5843 12.4492 12.8183 12.0182 13.0503 11.5492C12.8108 11.6277 12.562 11.6737 12.3103 11.6862L12.1663 11.6942C12.1183 11.6962 12.0733 11.6942 12.0203 11.6962C12.9053 11.4982 13.5203 10.9562 14.0143 10.2492C13.7743 10.3662 13.3863 10.5112 12.9443 10.5462C12.8863 10.5522 12.8243 10.5522 12.7623 10.5522C12.7493 10.5502 12.7343 10.5522 12.7153 10.5502C13.0213 10.4722 13.2893 10.3722 13.5253 10.2412C13.6495 10.1703 13.7691 10.0914 13.8833 10.0052C13.9273 9.96825 13.9713 9.93525 14.0133 9.89925C14.1123 9.81324 14.2063 9.71924 14.2933 9.61225C14.3213 9.57825 14.3493 9.54925 14.3733 9.51425C14.4093 9.46425 14.4463 9.41625 14.4773 9.36825C14.6632 9.10234 14.8335 8.82588 14.9873 8.54025C15.0023 8.50925 15.0193 8.48325 15.0333 8.45225C15.0733 8.36825 15.1133 8.29225 15.1433 8.22525C15.1853 8.12625 15.2173 8.04625 15.2353 7.98725C15.2014 8.00838 15.1652 8.02549 15.1273 8.03825C14.8543 8.15025 14.4003 8.22525 14.0413 8.23925C14.0373 8.23925 14.0333 8.23925 14.0283 8.24325L13.9613 8.24325C14.6813 8.02925 15.0283 7.79325 15.3833 7.42525C15.7991 6.97523 16.1846 6.49819 16.5373 5.99725C16.8013 5.62725 17.0423 5.25925 17.2293 4.92525C17.3386 4.73311 17.4381 4.53552 17.5273 4.33325C17.5933 4.17625 17.6493 4.02825 17.6993 3.88325C17.2333 3.89325 16.7133 3.89425 16.2193 3.88325C16.7143 3.89325 17.2343 3.89025 17.7033 3.87825C18.2033 2.39325 17.7663 1.61625 17.7663 1.61625C17.7663 1.61625 17.2403 0.404245 16.3663 0.765245C15.9403 0.940245 15.1943 1.49525 14.2833 2.32525L14.7973 3.77525C15.3288 3.20401 15.8977 2.66882 16.5003 2.17325C16.2433 2.39325 15.6933 2.89925 14.8853 3.81725C14.6293 4.10725 14.3483 4.44125 14.0413 4.81425C14.0243 4.83425 14.0063 4.85225 13.9943 4.87425C13.4196 5.58827 12.864 6.31754 12.3283 7.06125C12.0803 7.40125 11.8303 7.76525 11.5633 8.14925L11.5473 8.14925C11.5493 8.16925 11.5433 8.17725 11.5373 8.18124L11.4363 8.33325C11.3323 8.48825 11.2233 8.64325 11.1183 8.80325L10.7663 9.33725C10.7053 9.42725 10.6423 9.51825 10.5803 9.61425C10.3963 9.89625 10.2133 10.1872 10.0223 10.4872C9.53536 11.2598 9.05931 12.0393 8.5943 12.8252C8.13644 13.6 7.6894 14.3811 7.2533 15.1682C7.2413 15.1852 7.2333 15.2082 7.2193 15.2252C6.9952 15.6321 6.77253 16.0398 6.5513 16.4482L6.4543 16.6292C6.2843 16.9472 6.1083 17.2712 5.9343 17.6082C5.9343 17.6122 5.9293 17.6162 5.9283 17.6212C5.9023 17.6692 5.8783 17.7142 5.8563 17.7622C5.7393 17.9842 5.6383 18.1862 5.4063 18.6322C5.33552 18.5632 5.25739 18.5022 5.1733 18.4503L5.5183 17.8003C5.5653 17.7113 5.6143 17.6233 5.6613 17.5303L5.7013 17.4533L6.2473 16.4523L6.37731 16.2193L6.37731 16.2133L6.3763 16.2073C6.5453 15.8972 6.7213 15.5872 6.89631 15.2673C6.9473 15.1803 6.99831 15.0942 7.0493 15.0022C7.2733 14.6072 7.50331 14.2083 7.7333 13.8052C8.41875 12.6215 9.13058 11.4532 9.86831 10.3012C10.1153 9.91525 10.3713 9.53125 10.6223 9.14925C10.7143 9.01125 10.8043 8.87725 10.9013 8.73925C11.0599 8.50465 11.2199 8.27099 11.3813 8.03825C11.3883 8.02625 11.4003 8.01425 11.4073 8.00125L11.4133 8.00125C11.6733 7.64525 11.9303 7.28825 12.1863 6.93625C12.4643 6.56325 12.7403 6.20125 13.0163 5.84625C13.5779 5.12887 14.1708 4.43653 14.7933 3.77125L14.2783 2.32525C14.2183 2.38225 14.1523 2.44125 14.0863 2.50325C13.8297 2.74213 13.577 2.98516 13.3283 3.23225C13.0333 3.52625 12.7313 3.83825 12.4163 4.16725C11.856 4.76528 11.3118 5.37816 10.7843 6.00525L10.7543 6.03825L10.7563 6.04625C10.7393 6.06625 10.7233 6.09025 10.7023 6.11025C10.4363 6.43325 10.1643 6.75925 9.90131 7.09525C9.39958 7.73014 8.91768 8.38045 8.45631 9.04525C8.41331 9.10525 8.37131 9.17125 8.32931 9.23125C7.8228 9.97457 7.35452 10.7432 6.92631 11.5342C6.79631 11.7812 6.67031 12.0192 6.55631 12.2492C6.46031 12.4442 6.36931 12.6442 6.27831 12.8402C6.06831 13.3032 5.88031 13.7702 5.71231 14.2392L5.71431 14.2452C5.70395 14.2638 5.69525 14.2832 5.68831 14.3032C5.58031 14.6062 5.48531 14.9112 5.39831 15.2172C5.25831 15.3912 5.09631 15.5422 4.91531 15.6772C4.87312 15.625 4.82943 15.574 4.78431 15.5242C5.22645 14.861 5.50852 14.1041 5.60831 13.3132C5.66085 12.8183 5.65548 12.3189 5.59231 11.8252C5.54631 11.4252 5.46631 11.0052 5.35431 10.5512C5.25731 10.1582 5.13731 9.74125 4.99131 9.30325C4.90031 9.48825 4.77131 9.67025 4.61231 9.84825L4.52631 9.94225C4.49731 9.97425 4.46631 10.0022 4.43431 10.0362C4.86831 9.36225 4.92031 8.63925 4.79231 7.88825C4.68181 8.19892 4.51578 8.48693 4.30231 8.73825C4.26931 8.77625 4.23031 8.81525 4.19231 8.85425C4.18231 8.86125 4.17331 8.87225 4.15931 8.88225C4.30331 8.64225 4.40931 8.41525 4.47731 8.18425C4.49349 8.13641 4.50684 8.08766 4.51731 8.03825C4.53297 7.96379 4.54565 7.88873 4.55531 7.81325L4.57331 7.66725C4.58256 7.5494 4.58189 7.43099 4.57131 7.31325C4.56831 7.27325 4.56731 7.23725 4.56131 7.20025C4.55131 7.14525 4.54531 7.09525 4.53431 7.04625C4.48631 6.76274 4.42187 6.48227 4.34131 6.20625C4.33131 6.17825 4.32631 6.15025 4.31531 6.12225C4.28831 6.04325 4.26731 5.97325 4.24331 5.91325C4.21711 5.84201 4.18706 5.77224 4.15331 5.70425C4.14558 5.73883 4.13383 5.77239 4.11831 5.80425C4.01631 6.04425 3.77831 6.37425 3.56131 6.60425C3.55831 6.60725 3.55431 6.60925 3.55431 6.61425L3.51431 6.65725C3.83231 6.07725 3.90431 5.71125 3.89931 5.25925C3.88166 4.71798 3.82821 4.17846 3.73931 3.64425C3.68148 3.27242 3.60404 2.90391 3.50731 2.54025C3.45667 2.35136 3.39659 2.16513 3.32731 1.98225C3.27439 1.85002 3.21702 1.71961 3.15531 1.59125C3.15598 1.58992 3.15664 1.58858 3.15731 1.58725C2.5473 0.34124 1.7913 0.12424 1.7913 0.12424C1.7913 0.12424 1.5213 0.0142398 1.2093 0.00123975L1.2083 0.00123976ZM4.5883 15.7842L4.6203 15.8662L4.6203 15.8682C4.5603 15.9012 4.5043 15.9352 4.4423 15.9652C4.4303 15.9692 4.4183 15.9772 4.4033 15.9832C4.46904 15.9201 4.53113 15.8534 4.5893 15.7832L4.5883 15.7842ZM3.9853 17.4102C4.1153 17.5462 4.2353 17.6522 4.3393 17.7302L4.4093 17.9572C4.32621 17.9693 4.24402 17.9871 4.1633 18.0102L4.1333 17.9122C4.1093 17.8282 4.0853 17.7422 4.0573 17.6552L4.0363 17.5822L3.9853 17.4102ZM4.2453 18.2852C4.33576 18.2833 4.42624 18.2867 4.5163 18.2952L4.5863 18.5242C4.6679 18.5098 4.75128 18.5084 4.8333 18.5202L4.5073 19.1472C4.41897 18.8602 4.33164 18.5729 4.2453 18.2852L4.2453 18.2852Z" fill="rgb(255,255,255)" fill-rule="nonzero" />
</svg>
