<svg viewBox="0 0 23.9998 23.9716" xmlns="http://www.w3.org/2000/svg" xmlns:xlink="http://www.w3.org/1999/xlink" width="23.999847" height="23.971603" fill="none" customFrame="#000000">
	<path id="Vector 3" d="M21.8527 1.4006C21.5194 2.19994 21.0881 2.95476 20.5687 3.6477C19.0817 2.11009 17.2097 0.999165 15.1477 0.430554C13.0856 -0.138055 10.9088 -0.143563 8.84394 0.414607C6.77904 0.972777 4.9015 2.07422 3.40675 3.60428C1.91199 5.13434 0.85468 7.03709 0.344863 9.11445C-0.164954 11.1918 -0.108636 13.3679 0.507953 15.4161C1.12454 17.4643 2.27886 19.3098 3.85075 20.7605L4.29526 21.1556C5.98202 22.5782 8.02961 23.5061 10.2113 23.8367C12.3929 24.1673 14.6235 23.8875 16.656 23.0285C18.6885 22.1695 20.4435 20.7647 21.7268 18.9697C23.0101 17.1747 23.7716 15.0596 23.9269 12.8585C24.2726 9.84589 23.3589 5.99359 21.8526 1.40049L21.8527 1.4006ZM5.57946 20.8593C5.45249 21.0153 5.28212 21.1302 5.08988 21.1894C4.89765 21.2487 4.69217 21.2496 4.49941 21.192C4.30665 21.1345 4.13527 21.0212 4.00693 20.8663C3.87858 20.7114 3.79903 20.5219 3.77833 20.3218C3.75763 20.1218 3.7967 19.92 3.89061 19.7421C3.98453 19.5642 4.12906 19.4182 4.30596 19.3224C4.48286 19.2267 4.68417 19.1855 4.88446 19.2041C5.08475 19.2227 5.27503 19.3003 5.43126 19.427C5.56686 19.5418 5.67077 19.6895 5.73305 19.8559C5.79533 20.0224 5.81392 20.202 5.78703 20.3776C5.76014 20.5533 5.68867 20.7191 5.57946 20.8593ZM21.7786 17.2787C18.8401 21.205 12.5185 19.8715 8.49335 20.0691C8.49335 20.0691 7.77726 20.1185 7.06106 20.2172C7.06106 20.2172 7.33276 20.0938 7.67846 19.9703C10.5183 18.9826 11.8517 18.785 13.5803 17.896C16.8152 16.2415 20.0501 12.6116 20.6921 8.85809C19.4574 12.4634 15.704 15.5748 12.2962 16.8342C9.95025 17.6985 5.72766 18.5381 5.72766 18.5381L5.55476 18.4393C2.69025 17.0317 2.59155 10.8089 7.82656 8.80869C10.1232 7.91969 12.2962 8.41369 14.7903 7.82099C17.4325 7.20359 20.4946 5.22809 21.7293 2.63529C23.1121 6.80849 24.7913 13.2783 21.7786 17.2787L21.7786 17.2787Z" fill="rgba(0, 0, 0, 1)" fill-rule="nonzero" />
</svg>
