<svg viewBox="0 0 246.815 46" xmlns="http://www.w3.org/2000/svg" xmlns:xlink="http://www.w3.org/1999/xlink" width="246.814880" height="46.000008" fill="none" customFrame="#000000">
	<g id="Como instalar">
		<path id="" d="M12.2534 34.8076Q9.8877 34.8076 7.85156 33.9873Q5.82275 33.1597 4.29932 31.6875Q2.77588 30.208 1.92627 28.2451Q1.08398 26.2822 1.08398 23.9971Q1.08398 21.6973 1.92627 19.7344Q2.77588 17.7715 4.30664 16.2993Q5.84473 14.8198 7.87354 13.9995Q9.90967 13.1719 12.2534 13.1719Q13.9673 13.1719 15.6006 13.6553Q17.2339 14.1313 18.6255 15.0029Q20.0171 15.8745 20.9912 17.0903L18.0688 19.998Q16.9263 18.5918 15.4321 17.8813Q13.9453 17.1636 12.2534 17.1636Q10.8325 17.1636 9.60205 17.6909Q8.37891 18.2109 7.4707 19.1265Q6.5625 20.042 6.05713 21.2871Q5.55176 22.5249 5.55176 23.9971Q5.55176 25.4473 6.06445 26.6851Q6.58447 27.9155 7.50732 28.8457Q8.43018 29.7686 9.68262 30.2812Q10.9351 30.7866 12.3999 30.7866Q14.0479 30.7866 15.4834 30.0981Q16.9263 29.4097 18.0176 28.106L20.8667 30.9331Q19.8853 32.1196 18.501 32.9985Q17.124 33.8701 15.5127 34.3389Q13.9087 34.8076 12.2534 34.8076ZM30.3332 34.8003Q27.9894 34.8003 26.0924 33.7236Q24.2028 32.647 23.0968 30.8159Q21.9909 28.9775 21.9909 26.6997Q21.9909 24.4146 23.0895 22.5762Q24.1955 20.7378 26.0924 19.6611Q27.9894 18.5771 30.3332 18.5771Q32.6842 18.5771 34.5739 19.6611Q36.4635 20.7378 37.5695 22.5762Q38.6828 24.4146 38.6828 26.6997Q38.6828 28.9775 37.5768 30.8159Q36.4709 32.647 34.5739 33.7236Q32.6842 34.8003 30.3332 34.8003ZM30.3332 31.2334Q31.5636 31.2334 32.5451 30.6328Q33.5265 30.0249 34.0978 28.9922Q34.6691 27.9595 34.6691 26.6851Q34.6691 25.4106 34.0905 24.3853Q33.5119 23.3599 32.5304 22.752Q31.549 22.144 30.3405 22.144Q29.1247 22.144 28.1359 22.752Q27.1545 23.3599 26.5758 24.3853Q26.0046 25.4106 26.0046 26.6851Q26.0046 27.9595 26.5758 28.9922Q27.1545 30.0249 28.1359 30.6328Q29.1247 31.2334 30.3332 31.2334ZM41.1813 34.5L41.1813 18.8701L45.2902 18.8701L45.2902 20.0713Q46.9748 18.5698 49.3771 18.5698Q50.9006 18.5698 52.1091 19.1851Q53.3176 19.8003 54.0939 20.9136Q55.0461 19.771 56.3571 19.1704Q57.6681 18.5698 59.2575 18.5698Q61.0153 18.5698 62.3483 19.3608Q63.6887 20.1445 64.4577 21.5508Q65.2267 22.9497 65.2267 24.7954L65.2267 34.5L61.1252 34.5L61.1252 25.396Q61.1252 23.8799 60.3195 22.9937Q59.5212 22.1074 58.1735 22.1074Q57.2433 22.1074 56.4816 22.4956Q55.7199 22.8838 55.1706 23.6675Q55.2072 23.9312 55.2292 24.2168Q55.2512 24.4951 55.2512 24.7954L55.2512 34.5L51.1569 34.5L51.1569 25.396Q51.1569 23.8799 50.3512 22.9937Q49.5456 22.1074 48.2053 22.1074Q47.2824 22.1074 46.5427 22.4736Q45.8102 22.8325 45.2902 23.543L45.2902 34.5L41.1813 34.5ZM75.9632 34.8003Q73.6194 34.8003 71.7224 33.7236Q69.8328 32.647 68.7268 30.8159Q67.6209 28.9775 67.6209 26.6997Q67.6209 24.4146 68.7195 22.5762Q69.8255 20.7378 71.7224 19.6611Q73.6194 18.5771 75.9632 18.5771Q78.3142 18.5771 80.2039 19.6611Q82.0935 20.7378 83.1995 22.5762Q84.3128 24.4146 84.3128 26.6997Q84.3128 28.9775 83.2068 30.8159Q82.1009 32.647 80.2039 33.7236Q78.3142 34.8003 75.9632 34.8003ZM75.9632 31.2334Q77.1936 31.2334 78.1751 30.6328Q79.1565 30.0249 79.7278 28.9922Q80.2991 27.9595 80.2991 26.6851Q80.2991 25.4106 79.7205 24.3853Q79.1419 23.3599 78.1604 22.752Q77.179 22.144 75.9705 22.144Q74.7547 22.144 73.7659 22.752Q72.7845 23.3599 72.2058 24.3853Q71.6346 25.4106 71.6346 26.6851Q71.6346 27.9595 72.2058 28.9922Q72.7845 30.0249 73.7659 30.6328Q74.7547 31.2334 75.9632 31.2334ZM92.8413 34.5L92.8413 18.8701L96.9502 18.8701L96.9502 34.5L92.8413 34.5ZM94.8921 16.9951Q93.918 16.9951 93.2368 16.314Q92.5557 15.6328 92.5557 14.6587Q92.5557 13.6772 93.2368 13.0034Q93.918 12.3223 94.8921 12.3223Q95.8662 12.3223 96.5474 13.0034Q97.2359 13.6772 97.2359 14.6587Q97.2359 15.6328 96.5474 16.314Q95.8662 16.9951 94.8921 16.9951ZM100.161 34.5L100.161 18.8701L104.27 18.8701L104.27 20.1445Q106.057 18.5698 108.665 18.5698Q110.488 18.5698 111.873 19.3608Q113.264 20.1445 114.048 21.5508Q114.839 22.9497 114.839 24.7954L114.839 34.5L110.745 34.5L110.745 25.396Q110.745 23.8799 109.866 22.9937Q108.987 22.1074 107.486 22.1074Q106.438 22.1074 105.633 22.5176Q104.834 22.9204 104.27 23.6675L104.27 34.5L100.161 34.5ZM123.803 34.8003Q121.665 34.8003 119.826 34.251Q117.988 33.7017 116.633 32.6543L118.669 29.9004Q120.046 30.8232 121.284 31.2627Q122.522 31.7021 123.752 31.7021Q125.129 31.7021 125.957 31.2407Q126.784 30.7793 126.784 30.0322Q126.784 29.4243 126.308 29.0654Q125.84 28.6992 124.829 28.5601L121.833 28.1133Q119.497 27.7617 118.296 26.6045Q117.094 25.4399 117.094 23.5503Q117.094 22.0342 117.885 20.9282Q118.684 19.8149 120.141 19.2144Q121.599 18.6138 123.591 18.6138Q125.305 18.6138 126.938 19.0972Q128.571 19.5732 130.014 20.5474L128.029 23.2061Q126.748 22.4224 125.576 22.0635Q124.404 21.6973 123.217 21.6973Q122.104 21.6973 121.423 22.1221Q120.742 22.5396 120.742 23.2207Q120.742 23.8579 121.233 24.2095Q121.723 24.561 122.866 24.7295L125.861 25.1763Q128.176 25.4985 129.406 26.6631Q130.644 27.8203 130.644 29.6514Q130.644 31.1382 129.743 32.2954Q128.85 33.4526 127.312 34.1265Q125.781 34.8003 123.803 34.8003ZM139.793 34.7344Q137.201 34.7344 135.86 33.5625Q134.52 32.3833 134.52 30.0981L134.52 22.3052L131.305 22.3052L131.305 18.8701L134.52 18.8701L134.52 14.8638L138.622 13.9556L138.622 18.8701L143.082 18.8701L143.082 22.3052L138.622 22.3052L138.622 29.2485Q138.622 30.3398 139.105 30.8013Q139.596 31.2627 140.782 31.2627Q141.39 31.2627 141.881 31.1821Q142.379 31.1016 142.972 30.9185L142.972 34.2803Q142.335 34.4927 141.405 34.6099Q140.475 34.7344 139.793 34.7344ZM150.074 34.771Q148.405 34.771 147.115 34.1558Q145.826 33.5405 145.101 32.4565Q144.376 31.3726 144.376 29.959Q144.376 27.7251 146.068 26.4873Q147.767 25.2422 150.763 25.2422Q152.784 25.2422 154.594 25.8574L154.594 24.7295Q154.594 23.3599 153.751 22.686Q152.916 22.0049 151.29 22.0049Q150.309 22.0049 149.159 22.3125Q148.016 22.6128 146.515 23.2793L145.035 20.2397Q146.888 19.3975 148.58 18.9873Q150.272 18.5698 151.971 18.5698Q155.143 18.5698 156.893 20.0786Q158.644 21.5874 158.644 24.3486L158.644 34.5L154.594 34.5L154.594 33.394Q153.619 34.1118 152.506 34.4414Q151.4 34.771 150.074 34.771ZM148.287 29.8784Q148.287 30.772 149.064 31.2993Q149.84 31.8267 151.151 31.8267Q152.162 31.8267 153.026 31.5776Q153.89 31.3286 154.594 30.7939L154.594 28.5308Q153.832 28.2231 153.019 28.084Q152.206 27.9375 151.298 27.9375Q149.884 27.9375 149.086 28.4575Q148.287 28.9702 148.287 29.8784ZM161.751 34.5L161.751 13.5015L165.86 12.8203L165.86 34.5L161.751 34.5ZM174.044 34.771Q172.375 34.771 171.085 34.1558Q169.796 33.5405 169.071 32.4565Q168.346 31.3726 168.346 29.959Q168.346 27.7251 170.038 26.4873Q171.737 25.2422 174.733 25.2422Q176.754 25.2422 178.564 25.8574L178.564 24.7295Q178.564 23.3599 177.721 22.686Q176.886 22.0049 175.26 22.0049Q174.279 22.0049 173.129 22.3125Q171.986 22.6128 170.485 23.2793L169.005 20.2397Q170.858 19.3975 172.55 18.9873Q174.242 18.5698 175.941 18.5698Q179.113 18.5698 180.863 20.0786Q182.614 21.5874 182.614 24.3486L182.614 34.5L178.564 34.5L178.564 33.394Q177.589 34.1118 176.476 34.4414Q175.37 34.771 174.044 34.771ZM172.257 29.8784Q172.257 30.772 173.034 31.2993Q173.81 31.8267 175.121 31.8267Q176.132 31.8267 176.996 31.5776Q177.86 31.3286 178.564 30.7939L178.564 28.5308Q177.802 28.2231 176.989 28.084Q176.176 27.9375 175.268 27.9375Q173.854 27.9375 173.056 28.4575Q172.257 28.9702 172.257 29.8784ZM185.721 34.5L185.721 18.8701L189.83 18.8701L189.83 20.6133Q190.585 19.5952 191.639 19.0605Q192.694 18.5186 194.005 18.5186Q195.155 18.5405 195.719 18.8555L195.719 22.4663Q195.265 22.2466 194.723 22.144Q194.181 22.0415 193.624 22.0415Q192.416 22.0415 191.42 22.6494Q190.431 23.25 189.83 24.3633L189.83 34.5L185.721 34.5Z" fill="rgb(0,0,0)" fill-rule="nonzero" />
		<path id="" d="M12.2534 35.8076Q9.69383 35.8076 7.47787 34.9149Q5.26651 34.0128 3.60441 32.4066Q1.93693 30.7872 1.00855 28.6423Q0.0839844 26.4877 0.0839844 23.9971Q0.0839844 21.4918 1.0073 19.34Q1.93794 17.1899 3.61346 15.5785Q5.29074 13.9652 7.49868 13.0724Q9.7142 12.1719 12.2534 12.1719Q14.1122 12.1719 15.8844 12.6964Q17.647 13.2102 19.1563 14.1554Q20.6915 15.117 21.7716 16.4651L22.3331 17.1658L17.9902 21.487L17.2927 20.6286Q16.2927 19.3978 15.0027 18.7845Q13.7166 18.1636 12.2534 18.1636Q11.0378 18.1636 9.99597 18.6101Q8.9507 19.0545 8.18064 19.8307Q7.41367 20.6039 6.98371 21.6632Q6.55176 22.7212 6.55176 23.9971Q6.55176 25.2484 6.98834 26.3024Q7.4304 27.3483 8.21722 28.1414Q8.9951 28.9193 10.0615 29.3558Q11.1292 29.7866 12.3999 29.7866Q13.8205 29.7866 15.051 29.1965Q16.2992 28.6009 17.2508 27.4641L17.9494 26.6295L22.2194 30.8666L21.6373 31.5705Q20.5549 32.879 19.037 33.8428Q17.5393 34.7908 15.792 35.2991Q14.0518 35.8076 12.2534 35.8076ZM12.2534 33.8076Q13.7656 33.8076 15.2334 33.3787Q16.7088 32.9495 17.965 32.1543Q19.2156 31.3603 20.0961 30.2957L20.8667 30.9331L20.1623 31.6429L17.3132 28.8158L18.0176 28.106L18.7844 28.7478Q17.5534 30.2184 15.9158 30.9998Q14.2752 31.7866 12.3999 31.7866Q10.7409 31.7866 9.30377 31.2067Q7.86525 30.6178 6.79743 29.55Q5.73854 28.4827 5.14057 27.0677Q4.55176 25.6462 4.55176 23.9971Q4.55176 22.3286 5.13054 20.911Q5.71133 19.4801 6.76076 18.4222Q7.80712 17.3674 9.20813 16.7718Q10.6273 16.1636 12.2534 16.1636Q14.1741 16.1636 15.8615 16.9782Q17.5598 17.7858 18.845 19.3675L18.0688 19.998L17.3635 19.2892L20.2859 16.3815L20.9912 17.0903L20.2108 17.7156Q19.3426 16.632 18.0947 15.8504Q16.8208 15.0525 15.3168 14.6142Q13.8224 14.1719 12.2534 14.1719Q10.1051 14.1719 8.24839 14.9266Q6.39871 15.6745 4.99982 17.0201Q3.61382 18.353 2.84524 20.1287Q2.08398 21.9028 2.08398 23.9971Q2.08398 26.0767 2.84399 27.8479Q3.61483 29.6288 4.99422 30.9684Q6.379 32.3066 8.22525 33.0598Q10.0816 33.8076 12.2534 33.8076ZM30.3332 35.8003Q27.7254 35.8003 25.5988 34.5933Q23.4815 33.3869 22.2409 31.3329Q20.9909 29.2551 20.9909 26.6997Q20.9909 24.1385 22.2311 22.0632Q23.4738 19.9976 25.5988 18.7914Q27.7238 17.5771 30.3332 17.5771Q32.9507 17.5772 35.0715 18.7937Q37.1857 19.9983 38.4264 22.0607Q39.6828 24.1354 39.6828 26.6997Q39.6828 29.2552 38.4337 31.3314Q37.1917 33.3877 35.0675 34.5933Q32.9491 35.8003 30.3332 35.8003ZM30.3332 33.8003Q32.4193 33.8003 34.0803 32.8539Q35.75 31.9063 36.7199 30.3004Q37.6828 28.6999 37.6828 26.6997Q37.6828 24.6937 36.7126 23.0917Q35.7414 21.4773 34.0763 20.5285Q32.4178 19.5771 30.3332 19.5771Q28.255 19.5771 26.586 20.5308Q24.9172 21.478 23.9479 23.0892Q22.9909 24.6906 22.9909 26.6997Q22.9909 28.6999 23.9528 30.2989Q24.9241 31.907 26.586 32.8539Q28.2534 33.8003 30.3332 33.8003ZM30.3332 30.2334Q31.2819 30.2334 32.0231 29.7798Q32.7779 29.3123 33.2228 28.5081Q33.6691 27.7013 33.6691 26.6851Q33.6691 25.6733 33.2196 24.8767Q32.7671 24.0748 32.0039 23.6021Q31.2644 23.144 30.3405 23.144Q29.4075 23.144 28.6596 23.6038Q27.8992 24.0748 27.4468 24.8767Q27.0046 25.6704 27.0046 26.6851Q27.0046 27.7013 27.4509 28.5081Q27.9006 29.3108 28.6625 29.7827Q29.4046 30.2334 30.3332 30.2334ZM30.3332 32.2334Q28.8448 32.2334 27.6093 31.4829Q26.4083 30.739 25.7008 29.4762Q25.0046 28.2176 25.0046 26.6851Q25.0046 25.1509 25.7049 23.8938Q26.4097 22.6449 27.6122 21.9001Q28.8419 21.144 30.3405 21.144Q31.8336 21.144 33.057 21.9018Q34.2566 22.6449 34.9614 23.8938Q35.6691 25.148 35.6691 26.6851Q35.6691 28.2176 34.9728 29.4762Q34.2751 30.7375 33.067 31.4858Q31.8453 32.2334 30.3332 32.2334ZM40.1813 34.5L40.1813 17.8701L46.2902 17.8701L46.2902 20.0713L45.2902 20.0713L44.6248 19.3248Q46.5938 17.5698 49.3771 17.5698Q51.1405 17.5698 52.5627 18.2939Q53.9945 19.0228 54.9142 20.3416L54.0939 20.9136L53.3257 20.2734Q54.4232 18.9564 55.9406 18.2613Q57.45 17.5698 59.2575 17.5698Q61.2897 17.5698 62.8586 18.5009Q64.4329 19.4213 65.3351 21.071Q66.2267 22.693 66.2267 24.7954L66.2267 35.5L60.1252 35.5L60.1252 25.396Q60.1252 24.2665 59.5796 23.6663Q59.0761 23.1074 58.1735 23.1074Q57.4835 23.1074 56.9357 23.3866Q56.3958 23.6617 55.9895 24.2415L55.1706 23.6675L56.1611 23.5299Q56.2019 23.8239 56.2262 24.1401Q56.2512 24.4557 56.2512 24.7954L56.2512 35.5L50.1569 35.5L50.1569 25.396Q50.1569 24.2665 49.6113 23.6663Q49.1032 23.1074 48.2053 23.1074Q47.5164 23.1074 46.9863 23.3698Q46.4716 23.6221 46.0971 24.1336L45.2902 23.543L46.2902 23.543L46.2902 35.5L40.1813 35.5L40.1813 34.5ZM42.1813 34.5L41.1813 34.5L41.1813 33.5L45.2902 33.5L45.2902 34.5L44.2902 34.5L44.2902 23.2161L44.4833 22.9523Q45.1489 22.043 46.099 21.5774Q47.0484 21.1074 48.2053 21.1074Q49.988 21.1074 51.0912 22.321Q52.1569 23.4933 52.1569 25.396L52.1569 34.5L51.1569 34.5L51.1569 33.5L55.2512 33.5L55.2512 34.5L54.2512 34.5L54.2512 24.7954Q54.2512 24.5345 54.2321 24.2935Q54.2125 24.0384 54.1801 23.805L54.126 23.4155L54.3517 23.0935Q55.044 22.1059 56.0276 21.6046Q57.0032 21.1074 58.1735 21.1074Q59.9663 21.1074 61.0595 22.321Q62.1252 23.4933 62.1252 25.396L62.1252 34.5L61.1252 34.5L61.1252 33.5L65.2267 33.5L65.2267 34.5L64.2267 34.5L64.2267 24.7954Q64.2267 23.2065 63.5803 22.0306Q62.9444 20.8678 61.838 20.2208Q60.7409 19.5698 59.2575 19.5698Q57.8863 19.5698 56.7736 20.0796Q55.669 20.5856 54.8621 21.5538L54.0233 22.5604L53.2737 21.4856Q52.6406 20.5778 51.6554 20.0762Q50.6607 19.5698 49.3771 19.5698Q47.3558 19.5698 45.9556 20.8178L44.2902 22.3022L44.2902 18.8701L45.2902 18.8701L45.2902 19.8701L41.1813 19.8701L41.1813 18.8701L42.1813 18.8701L42.1813 34.5ZM75.9632 35.8003Q73.3554 35.8003 71.2288 34.5933Q69.1115 33.3869 67.8709 31.3329Q66.6209 29.2552 66.6209 26.6997Q66.6209 24.1385 67.8611 22.0632Q69.1038 19.9976 71.2288 18.7914Q73.3538 17.5771 75.9632 17.5771Q78.5807 17.5771 80.7015 18.7937Q82.8157 19.9983 84.0564 22.0607Q85.3128 24.1354 85.3128 26.6997Q85.3128 29.2552 84.0637 31.3314Q82.8217 33.3877 80.6975 34.5933Q78.5791 35.8003 75.9632 35.8003ZM75.9632 33.8003Q78.0493 33.8003 79.7103 32.8539Q81.38 31.9063 82.3499 30.3004Q83.3128 28.6999 83.3128 26.6997Q83.3128 24.6937 82.3426 23.0917Q81.3714 21.4773 79.7063 20.5285Q78.0478 19.5771 75.9632 19.5771Q73.885 19.5771 72.216 20.5308Q70.5472 21.478 69.5779 23.0892Q68.6209 24.6906 68.6209 26.6997Q68.6209 28.6999 69.5828 30.2989Q70.5541 31.907 72.216 32.8539Q73.8834 33.8003 75.9632 33.8003ZM75.9632 30.2334Q76.9119 30.2334 77.6531 29.7798Q78.4079 29.3123 78.8528 28.5081Q79.2991 27.7013 79.2991 26.6851Q79.2991 25.6733 78.8496 24.8767Q78.3971 24.0748 77.6339 23.6021Q76.8944 23.144 75.9705 23.144Q75.0375 23.144 74.2896 23.6038Q73.5292 24.0748 73.0768 24.8767Q72.6346 25.6704 72.6346 26.6851Q72.6346 27.7013 73.0809 28.5081Q73.5306 29.3108 74.2925 29.7827Q75.0346 30.2334 75.9632 30.2334ZM75.9632 32.2334Q74.4748 32.2334 73.2393 31.4829Q72.0383 30.739 71.3308 29.4762Q70.6346 28.2176 70.6346 26.6851Q70.6346 25.1509 71.3349 23.8938Q72.0397 22.6449 73.2422 21.9001Q74.4719 21.144 75.9705 21.144Q77.4636 21.144 78.687 21.9018Q79.8867 22.6449 80.5914 23.8938Q81.2991 25.148 81.2991 26.6851Q81.2991 28.2176 80.6028 29.4762Q79.9051 30.7375 78.697 31.4858Q77.4753 32.2334 75.9632 32.2334ZM91.8413 34.5L91.8413 17.8701L97.9502 17.8701L97.9502 35.5L91.8413 35.5L91.8413 34.5ZM93.8413 34.5L92.8413 34.5L92.8413 33.5L96.9502 33.5L96.9502 34.5L95.9502 34.5L95.9502 18.8701L96.9502 18.8701L96.9502 19.8701L92.8413 19.8701L92.8413 18.8701L93.8413 18.8701L93.8413 34.5ZM94.8921 17.9951Q93.5038 17.9951 92.5297 17.0211Q91.5557 16.047 91.5557 14.6587Q91.5557 13.2599 92.5336 12.2925Q93.5038 11.3223 94.8921 11.3223Q96.2804 11.3223 97.2545 12.2963Q98.2359 13.2567 98.2359 14.6587Q98.2359 16.0502 97.2507 17.0248Q96.2804 17.9951 94.8921 17.9951ZM94.8921 15.9951Q95.452 15.9951 95.8441 15.6031Q96.2359 15.2155 96.2359 14.6587Q96.2359 14.0978 95.8403 13.7105Q95.452 13.3223 94.8921 13.3223Q94.3322 13.3223 93.9401 13.7143Q93.5557 14.0946 93.5557 14.6587Q93.5557 15.2186 93.9439 15.6069Q94.3322 15.9951 94.8921 15.9951ZM99.1613 34.5L99.1613 17.8701L105.27 17.8701L105.27 20.1445L104.27 20.1445L103.609 19.3942Q105.68 17.5698 108.665 17.5698Q110.754 17.5698 112.369 18.4926Q114.001 19.4115 114.922 21.064Q115.839 22.6866 115.839 24.7954L115.839 35.5L109.745 35.5L109.745 25.396Q109.745 24.2917 109.156 23.6978Q108.57 23.1074 107.486 23.1074Q106.678 23.1074 106.086 23.4087Q105.492 23.7085 105.068 24.27L104.27 23.6675L105.27 23.6675L105.27 35.5L99.1613 35.5L99.1613 34.5ZM101.161 34.5L100.161 34.5L100.161 33.5L104.27 33.5L104.27 34.5L103.27 34.5L103.27 23.3324L103.472 23.065Q104.176 22.1324 105.179 21.6264Q106.198 21.1074 107.486 21.1074Q109.404 21.1074 110.576 22.2895Q111.745 23.4681 111.745 25.396L111.745 34.5L110.745 34.5L110.745 33.5L114.839 33.5L114.839 34.5L113.839 34.5L113.839 24.7954Q113.839 23.2128 113.175 22.0376Q112.528 20.8776 111.377 20.2291Q110.223 19.5698 108.665 19.5698Q106.435 19.5698 104.931 20.8948L103.27 22.3585L103.27 18.8701L104.27 18.8701L104.27 19.8701L100.161 19.8701L100.161 18.8701L101.161 18.8701L101.161 34.5ZM123.803 35.8003Q121.518 35.8003 119.54 35.2091Q117.523 34.6066 116.021 33.4455L115.247 32.8469L118.433 28.5381L119.226 29.0697Q120.499 29.9228 121.618 30.3203Q122.694 30.7021 123.752 30.7021Q124.869 30.7021 125.47 30.3673Q125.784 30.1919 125.784 30.0322Q125.784 29.9228 125.706 29.864Q125.436 29.6531 124.692 29.5507L121.686 29.1023Q119.033 28.7031 117.602 27.3246Q116.094 25.8632 116.094 23.5503Q116.094 21.7134 117.072 20.3465Q118.038 18.9995 119.76 18.2898Q121.401 17.6138 123.591 17.6138Q125.45 17.6138 127.222 18.1383Q129.001 18.6569 130.574 19.7186L131.443 20.3053L128.285 24.5347L127.508 24.0592Q126.334 23.3415 125.283 23.0196Q124.251 22.6973 123.217 22.6973Q122.39 22.6973 121.952 22.9706Q121.742 23.0995 121.742 23.2207Q121.742 23.3442 121.815 23.3966Q122.109 23.6071 123.012 23.7402L126.009 24.1872Q128.631 24.5522 130.094 25.9368Q131.644 27.3862 131.644 29.6514Q131.644 31.4815 130.532 32.9097Q129.485 34.2661 127.713 35.0424Q125.991 35.8003 123.803 35.8003ZM123.803 33.8003Q125.571 33.8003 126.91 33.2105Q128.214 32.6392 128.954 31.6811Q129.644 30.7948 129.644 29.6514Q129.644 28.2544 128.719 27.3894Q127.721 26.4448 125.714 26.1653L122.72 25.7188Q121.338 25.515 120.65 25.0224Q119.742 24.3716 119.742 23.2207Q119.742 21.9796 120.894 21.2736Q121.818 20.6973 123.217 20.6973Q124.557 20.6973 125.869 21.1073Q127.161 21.5032 128.551 22.3529L128.029 23.2061L127.228 22.6078L129.213 19.9491L130.014 20.5474L129.455 21.3762Q128.142 20.4895 126.654 20.0561Q125.16 19.6138 123.591 19.6138Q121.797 19.6138 120.522 20.1389Q119.33 20.6304 118.699 21.51Q118.094 22.355 118.094 23.5503Q118.094 25.0166 118.989 25.8843Q119.961 26.8203 121.981 27.1242L124.965 27.5694Q126.243 27.7453 126.91 28.2669Q127.784 28.9258 127.784 30.0322Q127.784 31.3667 126.444 32.1142Q125.389 32.7021 123.752 32.7021Q122.349 32.7021 120.949 32.2051Q119.593 31.7237 118.112 30.7311L118.669 29.9004L119.473 30.4949L117.437 33.2488L116.633 32.6543L117.245 31.8631Q118.452 32.7968 120.113 33.2928Q121.811 33.8003 123.803 33.8003ZM139.793 35.7344Q136.825 35.7344 135.202 34.3153Q133.52 32.8354 133.52 30.0981L133.52 22.3052L134.52 22.3052L134.52 23.3052L130.305 23.3052L130.305 17.8701L134.52 17.8701L134.52 18.8701L133.52 18.8701L133.52 14.061L139.622 12.7099L139.622 18.8701L138.622 18.8701L138.622 17.8701L144.082 17.8701L144.082 23.3052L138.622 23.3052L138.622 22.3052L139.622 22.3052L139.622 29.2485Q139.622 29.9119 139.795 30.0779Q139.992 30.2627 140.782 30.2627Q141.309 30.2627 141.719 30.1953Q142.15 30.1255 142.677 29.9629L143.972 29.5633L143.972 35.001L143.288 35.229Q142.558 35.4725 141.53 35.602Q140.541 35.7344 139.793 35.7344ZM139.793 33.7344Q140.408 33.7344 141.28 33.6177Q142.112 33.5128 142.656 33.3316L142.972 34.2803L141.972 34.2803L141.972 30.9185L142.972 30.9185L143.267 31.874Q142.607 32.0776 142.043 32.1689Q141.472 32.2627 140.782 32.2627Q139.199 32.2627 138.414 31.5246Q137.622 30.7677 137.622 29.2485L137.622 21.3052L143.082 21.3052L143.082 22.3052L142.082 22.3052L142.082 18.8701L143.082 18.8701L143.082 19.8701L137.622 19.8701L137.622 13.9556L138.622 13.9556L138.838 14.9319L134.736 15.8401L134.52 14.8638L135.52 14.8638L135.52 19.8701L131.305 19.8701L131.305 18.8701L132.305 18.8701L132.305 22.3052L131.305 22.3052L131.305 21.3052L135.52 21.3052L135.52 30.0981Q135.52 31.9312 136.519 32.8097Q137.576 33.7344 139.793 33.7344ZM150.074 35.771Q148.178 35.771 146.685 35.0582Q145.148 34.3247 144.27 33.0125Q143.376 31.6762 143.376 29.959Q143.376 27.2177 145.478 25.6802Q147.44 24.2422 150.763 24.2422Q152.95 24.2422 154.915 24.9107L154.594 25.8574L153.594 25.8574L153.594 24.7295Q153.594 23.8405 153.127 23.4669Q152.56 23.0049 151.29 23.0049Q150.44 23.0049 149.417 23.2785Q148.348 23.5595 146.921 24.1933L146.038 24.585L143.687 19.7542L144.622 19.3294Q146.561 18.4479 148.345 18.0155Q150.151 17.5698 151.971 17.5698Q155.514 17.5698 157.546 19.3211Q159.644 21.1291 159.644 24.3486L159.644 35.5L153.594 35.5L153.594 33.394L154.594 33.394L155.187 34.1991Q154.071 35.0209 152.79 35.4003Q151.546 35.771 150.074 35.771ZM150.074 33.771Q151.254 33.771 152.222 33.4825Q153.167 33.2027 154 32.589L155.594 31.4151L155.594 34.5L154.594 34.5L154.594 33.5L158.644 33.5L158.644 34.5L157.644 34.5L157.644 24.3486Q157.644 22.0457 156.24 20.8361Q154.771 19.5698 151.971 19.5698Q150.394 19.5698 148.816 19.9592Q147.216 20.347 145.449 21.1501L145.035 20.2397L145.935 19.8021L147.414 22.8416L146.515 23.2793L146.109 22.3653Q147.684 21.6661 148.901 21.3465Q150.177 21.0049 151.29 21.0049Q153.272 21.0049 154.376 21.9052Q155.594 22.8792 155.594 24.7295L155.594 27.2537L154.272 26.8042Q152.619 26.2422 150.763 26.2422Q148.094 26.2422 146.659 27.2944Q145.376 28.2325 145.376 29.959Q145.376 31.0689 145.933 31.9005Q146.505 32.7563 147.546 33.2533Q148.631 33.771 150.074 33.771ZM149.287 29.8784Q149.287 30.2423 149.626 30.4721Q150.148 30.8267 151.151 30.8267Q152.021 30.8267 152.749 30.6167Q153.434 30.4195 153.988 29.9979L154.594 30.7939L153.594 30.7939L153.594 28.5308L154.594 28.5308L154.219 29.458Q153.557 29.1907 152.85 29.0696Q152.116 28.9375 151.298 28.9375Q150.181 28.9375 149.631 29.2954Q149.287 29.5165 149.287 29.8784ZM147.287 29.8784Q147.287 28.424 148.54 27.6196Q149.587 26.9375 151.298 26.9375Q152.295 26.9375 153.188 27.0983Q154.107 27.2556 154.968 27.6035L155.594 27.8561L155.594 31.2898L155.199 31.5899Q154.347 32.2378 153.303 32.5385Q152.303 32.8267 151.151 32.8267Q149.533 32.8267 148.502 32.1265Q147.287 31.3016 147.287 29.8784ZM160.751 34.5L160.751 12.6536L166.86 11.6409L166.86 35.5L160.751 35.5L160.751 34.5ZM162.751 34.5L161.751 34.5L161.751 33.5L165.86 33.5L165.86 34.5L164.86 34.5L164.86 12.8203L165.86 12.8203L166.024 13.8068L161.915 14.488L161.751 13.5015L162.751 13.5015L162.751 34.5ZM174.044 35.771Q172.148 35.771 170.655 35.0582Q169.118 34.3247 168.24 33.0125Q167.346 31.6762 167.346 29.959Q167.346 27.2177 169.448 25.6802Q171.41 24.2422 174.733 24.2422Q176.92 24.2422 178.885 24.9107L178.564 25.8574L177.564 25.8574L177.564 24.7295Q177.564 23.8405 177.097 23.4669Q176.53 23.0049 175.26 23.0049Q174.41 23.0049 173.387 23.2785Q172.318 23.5595 170.891 24.1933L170.008 24.585L167.657 19.7542L168.592 19.3294Q170.531 18.4479 172.315 18.0155Q174.121 17.5698 175.941 17.5698Q179.484 17.5698 181.516 19.3211Q183.614 21.1291 183.614 24.3486L183.614 35.5L177.564 35.5L177.564 33.394L178.564 33.394L179.157 34.1991Q178.041 35.0209 176.76 35.4003Q175.516 35.771 174.044 35.771ZM174.044 33.771Q175.224 33.771 176.192 33.4825Q177.137 33.2027 177.97 32.589L179.564 31.4151L179.564 34.5L178.564 34.5L178.564 33.5L182.614 33.5L182.614 34.5L181.614 34.5L181.614 24.3486Q181.614 22.0457 180.21 20.8361Q178.741 19.5698 175.941 19.5698Q174.364 19.5698 172.786 19.9592Q171.186 20.347 169.419 21.1501L169.005 20.2397L169.905 19.8021L171.384 22.8416L170.485 23.2793L170.079 22.3653Q171.654 21.6661 172.871 21.3465Q174.147 21.0049 175.26 21.0049Q177.242 21.0049 178.346 21.9052Q179.563 22.8792 179.564 24.7295L179.564 27.2537L178.242 26.8042Q176.589 26.2422 174.733 26.2422Q172.064 26.2422 170.629 27.2944Q169.346 28.2325 169.346 29.959Q169.346 31.0689 169.903 31.9005Q170.475 32.7563 171.516 33.2533Q172.601 33.771 174.044 33.771ZM173.257 29.8784Q173.257 30.2423 173.596 30.4721Q174.118 30.8267 175.121 30.8267Q175.991 30.8267 176.719 30.6167Q177.404 30.4195 177.958 29.9979L178.564 30.7939L177.564 30.7939L177.564 28.5308L178.564 28.5308L178.189 29.458Q177.527 29.1907 176.82 29.0696Q176.086 28.9375 175.268 28.9375Q174.151 28.9375 173.601 29.2954Q173.257 29.5165 173.257 29.8784ZM171.257 29.8784Q171.257 28.424 172.51 27.6196Q173.557 26.9375 175.268 26.9375Q176.265 26.9375 177.158 27.0983Q178.077 27.2556 178.938 27.6035L179.564 27.8561L179.564 31.2898L179.169 31.5899Q178.317 32.2378 177.273 32.5385Q176.273 32.8267 175.121 32.8267Q173.503 32.8267 172.472 32.1265Q171.257 31.3016 171.257 29.8784ZM184.721 34.5L184.721 17.8701L190.83 17.8701L190.83 20.6133L189.83 20.6133L189.027 20.0179Q189.922 18.8101 191.187 18.1686Q192.452 17.5186 194.005 17.5186Q195.424 17.5455 196.206 17.9824L196.719 18.2685L196.719 24.0611L195.283 23.3665Q194.949 23.2045 194.537 23.1266Q194.087 23.0415 193.624 23.0415Q192.697 23.0415 191.94 23.503Q191.182 23.9637 190.71 24.8381L189.83 24.3633L190.83 24.3633L190.83 35.5L184.721 35.5L184.721 34.5ZM186.721 34.5L185.721 34.5L185.721 33.5L189.83 33.5L189.83 34.5L188.83 34.5L188.83 24.1108L188.95 23.8885Q189.68 22.5362 190.899 21.7958Q192.135 21.0415 193.624 21.0415Q194.275 21.0415 194.909 21.1615Q195.581 21.2887 196.154 21.5661L195.719 22.4663L194.719 22.4663L194.719 18.8555L195.719 18.8555L195.231 19.7286Q194.886 19.5356 194.005 19.5186Q192.936 19.5186 192.091 19.9525Q191.247 20.3804 190.634 21.2086L188.83 23.6424L188.83 18.8701L189.83 18.8701L189.83 19.8701L185.721 19.8701L185.721 18.8701L186.721 18.8701L186.721 34.5Z" fill="rgb(0,0,0)" fill-rule="nonzero" />
		<path id="Vector 11" d="M205.004 30.7461L245.317 30.8575L245.308 33.8575L204.996 33.7461L205.004 30.7461ZM246.812 32.3575L246.812 44.5L243.812 44.5L243.812 32.3575L246.812 32.3575ZM205.004 42.8886L245.317 43L245.308 46L204.996 45.8886L205.004 42.8886ZM206.5 32.3575L206.5 44.5L203.5 44.5L203.5 32.3575L206.5 32.3575ZM226.656 1.5L226.656 26.3977L223.656 26.3977L223.656 1.5L226.656 1.5ZM203.558 31.8316L209.997 9.44038L212.88 10.2695L206.442 32.6607L203.558 31.8316ZM243.871 32.7721L237.432 10.3809L240.315 9.55178L246.754 31.943L243.871 32.7721ZM211.439 8.35492L217.878 8.35492L217.878 11.3549L211.439 11.3549L211.439 8.35492ZM232.435 8.35492L238.874 8.35492L238.874 11.3549L232.435 11.3549L232.435 8.35492ZM205.016 33.7262L204.996 33.7461C204.156 33.7438 203.498 33.082 203.5 32.242C203.502 31.402 204.164 30.7438 205.004 30.7461L205.024 30.7662L205.016 33.7262ZM245.297 30.8775L245.317 30.8575C246.157 30.8598 246.815 31.5217 246.812 32.3617C246.81 33.2017 246.148 33.8598 245.308 33.8575L245.288 33.8375L245.297 30.8775ZM243.833 32.3775L243.812 32.3575C243.812 31.5175 244.473 30.8575 245.312 30.8575C246.152 30.8575 246.812 31.5175 246.812 32.3575L246.792 32.3775L243.833 32.3775ZM246.792 44.48L246.812 44.5C246.812 45.34 246.152 46 245.312 46C244.473 46 243.812 45.34 243.812 44.5L243.833 44.48L246.792 44.48ZM205.016 45.8687L204.996 45.8886C204.156 45.8863 203.498 45.2245 203.5 44.3845C203.502 43.5445 204.164 42.8863 205.004 42.8886L205.024 42.9087L205.016 45.8687ZM245.297 43.02L245.317 43C246.157 43.0023 246.815 43.6642 246.812 44.5041C246.81 45.3441 246.148 46.0023 245.308 46L245.288 45.9799L245.297 43.02ZM203.52 32.3775L203.5 32.3575C203.5 31.5175 204.16 30.8575 205 30.8575C205.84 30.8575 206.5 31.5175 206.5 32.3575L206.48 32.3775L203.52 32.3775ZM206.48 44.48L206.5 44.5C206.5 45.34 205.84 46 205 46C204.16 46 203.5 45.34 203.5 44.5L203.52 44.48L206.48 44.48ZM223.676 1.52L223.656 1.5C223.656 0.66 224.316 0 225.156 0C225.996 0 226.656 0.66 226.656 1.5L226.636 1.52L223.676 1.52ZM225.156 24.2764L232.581 16.8517C233.175 16.2578 234.108 16.2578 234.702 16.8517C235.296 17.4457 235.296 18.3791 234.702 18.973L226.217 27.4583C225.623 28.0523 224.69 28.0523 224.096 27.4583L215.61 18.9731C215.016 18.3791 215.016 17.4457 215.61 16.8517C216.204 16.2578 217.138 16.2578 217.732 16.8517L225.156 24.2764ZM206.428 32.6359L206.442 32.6607C206.209 33.4679 205.393 33.9198 204.585 33.6877C203.778 33.4556 203.326 32.6389 203.558 31.8316L203.583 31.8179L206.428 32.6359ZM210.011 9.46513L209.997 9.44038C210.229 8.6331 211.046 8.1812 211.853 8.41334C212.661 8.64548 213.113 9.46218 212.88 10.2695L212.856 10.2832L210.011 9.46513ZM246.729 31.9293L246.754 31.943C246.986 32.7503 246.534 33.567 245.727 33.7991C244.92 34.0312 244.103 33.5793 243.871 32.7721L243.885 32.7473L246.729 31.9293ZM237.457 10.3946L237.432 10.3809C237.2 9.57357 237.652 8.75688 238.459 8.52474C239.266 8.29259 240.083 8.7445 240.315 9.55178L240.302 9.57653L237.457 10.3946ZM211.459 11.3349L211.439 11.3549C210.599 11.3549 209.939 10.6949 209.939 9.85492C209.939 9.01492 210.599 8.35492 211.439 8.35492L211.459 8.37492L211.459 11.3349ZM217.858 8.37492L217.878 8.35492C218.718 8.35492 219.378 9.01492 219.378 9.85492C219.378 10.6949 218.718 11.3549 217.878 11.3549L217.858 11.3349L217.858 8.37492ZM232.455 11.3349L232.435 11.3549C231.595 11.3549 230.935 10.6949 230.935 9.85492C230.935 9.01492 231.595 8.35492 232.435 8.35492L232.455 8.37492L232.455 11.3349ZM238.854 8.37492L238.874 8.35492C239.714 8.35492 240.374 9.01492 240.374 9.85492C240.374 10.6949 239.714 11.3549 238.874 11.3549L238.854 11.3349L238.854 8.37492Z" fill="rgb(0,0,0)" fill-rule="nonzero" />
	</g>
</svg>
