<svg viewBox="0 0 246.815 46" xmlns="http://www.w3.org/2000/svg" xmlns:xlink="http://www.w3.org/1999/xlink" width="246.814880" height="46.000008" fill="none" customFrame="#000000">
	<g id="Como instalar">
		<path id="" d="M12.2534 34.8076Q9.8877 34.8076 7.85156 33.9873Q5.82275 33.1597 4.29932 31.6875Q2.77588 30.208 1.92627 28.2451Q1.08398 26.2822 1.08398 23.9971Q1.08398 21.6973 1.92627 19.7344Q2.77588 17.7715 4.30664 16.2993Q5.84473 14.8198 7.87354 13.9995Q9.90967 13.1719 12.2534 13.1719Q13.9673 13.1719 15.6006 13.6553Q17.2339 14.1313 18.6255 15.0029Q20.0171 15.8745 20.9912 17.0903L18.0688 19.998Q16.9263 18.5918 15.4321 17.8813Q13.9453 17.1636 12.2534 17.1636Q10.8325 17.1636 9.60205 17.6909Q8.37891 18.2109 7.4707 19.1265Q6.5625 20.042 6.05713 21.2871Q5.55176 22.5249 5.55176 23.9971Q5.55176 25.4473 6.06445 26.6851Q6.58447 27.9155 7.50732 28.8457Q8.43018 29.7686 9.68262 30.2812Q10.9351 30.7866 12.3999 30.7866Q14.0479 30.7866 15.4834 30.0981Q16.9263 29.4097 18.0176 28.106L20.8667 30.9331Q19.8853 32.1196 18.501 32.9985Q17.124 33.8701 15.5127 34.3389Q13.9087 34.8076 12.2534 34.8076ZM30.3332 34.8003Q27.9894 34.8003 26.0924 33.7236Q24.2028 32.647 23.0968 30.8159Q21.9909 28.9775 21.9909 26.6997Q21.9909 24.4146 23.0895 22.5762Q24.1955 20.7378 26.0924 19.6611Q27.9894 18.5771 30.3332 18.5771Q32.6842 18.5771 34.5739 19.6611Q36.4635 20.7378 37.5695 22.5762Q38.6828 24.4146 38.6828 26.6997Q38.6828 28.9775 37.5768 30.8159Q36.4709 32.647 34.5739 33.7236Q32.6842 34.8003 30.3332 34.8003ZM30.3332 31.2334Q31.5636 31.2334 32.5451 30.6328Q33.5265 30.0249 34.0978 28.9922Q34.6691 27.9595 34.6691 26.6851Q34.6691 25.4106 34.0905 24.3853Q33.5119 23.3599 32.5304 22.752Q31.549 22.144 30.3405 22.144Q29.1247 22.144 28.1359 22.752Q27.1545 23.3599 26.5758 24.3853Q26.0046 25.4106 26.0046 26.6851Q26.0046 27.9595 26.5758 28.9922Q27.1545 30.0249 28.1359 30.6328Q29.1247 31.2334 30.3332 31.2334ZM41.1813 34.5L41.1813 18.8701L45.2902 18.8701L45.2902 20.0713Q46.9748 18.5698 49.3771 18.5698Q50.9006 18.5698 52.1091 19.1851Q53.3176 19.8003 54.0939 20.9136Q55.0461 19.771 56.3571 19.1704Q57.6681 18.5698 59.2575 18.5698Q61.0153 18.5698 62.3483 19.3608Q63.6887 20.1445 64.4577 21.5508Q65.2267 22.9497 65.2267 24.7954L65.2267 34.5L61.1252 34.5L61.1252 25.396Q61.1252 23.8799 60.3195 22.9937Q59.5212 22.1074 58.1735 22.1074Q57.2433 22.1074 56.4816 22.4956Q55.7199 22.8838 55.1706 23.6675Q55.2072 23.9312 55.2292 24.2168Q55.2512 24.4951 55.2512 24.7954L55.2512 34.5L51.1569 34.5L51.1569 25.396Q51.1569 23.8799 50.3512 22.9937Q49.5456 22.1074 48.2053 22.1074Q47.2824 22.1074 46.5427 22.4736Q45.8102 22.8325 45.2902 23.543L45.2902 34.5L41.1813 34.5ZM75.9632 34.8003Q73.6194 34.8003 71.7224 33.7236Q69.8328 32.647 68.7268 30.8159Q67.6209 28.9775 67.6209 26.6997Q67.6209 24.4146 68.7195 22.5762Q69.8255 20.7378 71.7224 19.6611Q73.6194 18.5771 75.9632 18.5771Q78.3142 18.5771 80.2039 19.6611Q82.0935 20.7378 83.1995 22.5762Q84.3128 24.4146 84.3128 26.6997Q84.3128 28.9775 83.2068 30.8159Q82.1009 32.647 80.2039 33.7236Q78.3142 34.8003 75.9632 34.8003ZM75.9632 31.2334Q77.1936 31.2334 78.1751 30.6328Q79.1565 30.0249 79.7278 28.9922Q80.2991 27.9595 80.2991 26.6851Q80.2991 25.4106 79.7205 24.3853Q79.1419 23.3599 78.1604 22.752Q77.179 22.144 75.9705 22.144Q74.7547 22.144 73.7659 22.752Q72.7845 23.3599 72.2058 24.3853Q71.6346 25.4106 71.6346 26.6851Q71.6346 27.9595 72.2058 28.9922Q72.7845 30.0249 73.7659 30.6328Q74.7547 31.2334 75.9632 31.2334ZM92.8413 34.5L92.8413 18.8701L96.9502 18.8701L96.9502 34.5L92.8413 34.5ZM94.8921 16.9951Q93.918 16.9951 93.2368 16.314Q92.5557 15.6328 92.5557 14.6587Q92.5557 13.6772 93.2368 13.0034Q93.918 12.3223 94.8921 12.3223Q95.8662 12.3223 96.5474 13.0034Q97.2359 13.6772 97.2359 14.6587Q97.2359 15.6328 96.5474 16.314Q95.8662 16.9951 94.8921 16.9951ZM100.161 34.5L100.161 18.8701L104.27 18.8701L104.27 20.1445Q106.057 18.5698 108.665 18.5698Q110.488 18.5698 111.873 19.3608Q113.264 20.1445 114.048 21.5508Q114.839 22.9497 114.839 24.7954L114.839 34.5L110.745 34.5L110.745 25.396Q110.745 23.8799 109.866 22.9937Q108.987 22.1074 107.486 22.1074Q106.438 22.1074 105.633 22.5176Q104.834 22.9204 104.27 23.6675L104.27 34.5L100.161 34.5ZM123.803 34.8003Q121.665 34.8003 119.826 34.251Q117.988 33.7017 116.633 32.6543L118.669 29.9004Q120.046 30.8232 121.284 31.2627Q122.522 31.7021 123.752 31.7021Q125.129 31.7021 125.957 31.2407Q126.784 30.7793 126.784 30.0322Q126.784 29.4243 126.308 29.0654Q125.84 28.6992 124.829 28.5601L121.833 28.1133Q119.497 27.7617 118.296 26.6045Q117.094 25.4399 117.094 23.5503Q117.094 22.0342 117.885 20.9282Q118.684 19.8149 120.141 19.2144Q121.599 18.6138 123.591 18.6138Q125.305 18.6138 126.938 19.0972Q128.571 19.5732 130.014 20.5474L128.029 23.2061Q126.748 22.4224 125.576 22.0635Q124.404 21.6973 123.217 21.6973Q122.104 21.6973 121.423 22.1221Q120.742 22.5396 120.742 23.2207Q120.742 23.8579 121.233 24.2095Q121.723 24.561 122.866 24.7295L125.861 25.1763Q128.176 25.4985 129.406 26.6631Q130.644 27.8203 130.644 29.6514Q130.644 31.1382 129.743 32.2954Q128.85 33.4526 127.312 34.1265Q125.781 34.8003 123.803 34.8003ZM139.793 34.7344Q137.201 34.7344 135.86 33.5625Q134.52 32.3833 134.52 30.0981L134.52 22.3052L131.305 22.3052L131.305 18.8701L134.52 18.8701L134.52 14.8638L138.622 13.9556L138.622 18.8701L143.082 18.8701L143.082 22.3052L138.622 22.3052L138.622 29.2485Q138.622 30.3398 139.105 30.8013Q139.596 31.2627 140.782 31.2627Q141.39 31.2627 141.881 31.1821Q142.379 31.1016 142.972 30.9185L142.972 34.2803Q142.335 34.4927 141.405 34.6099Q140.475 34.7344 139.793 34.7344ZM150.074 34.771Q148.405 34.771 147.115 34.1558Q145.826 33.5405 145.101 32.4565Q144.376 31.3726 144.376 29.959Q144.376 27.7251 146.068 26.4873Q147.767 25.2422 150.763 25.2422Q152.784 25.2422 154.594 25.8574L154.594 24.7295Q154.594 23.3599 153.751 22.686Q152.916 22.0049 151.29 22.0049Q150.309 22.0049 149.159 22.3125Q148.016 22.6128 146.515 23.2793L145.035 20.2397Q146.888 19.3975 148.58 18.9873Q150.272 18.5698 151.971 18.5698Q155.143 18.5698 156.893 20.0786Q158.644 21.5874 158.644 24.3486L158.644 34.5L154.594 34.5L154.594 33.394Q153.619 34.1118 152.506 34.4414Q151.4 34.771 150.074 34.771ZM148.287 29.8784Q148.287 30.772 149.064 31.2993Q149.84 31.8267 151.151 31.8267Q152.162 31.8267 153.026 31.5776Q153.89 31.3286 154.594 30.7939L154.594 28.5308Q153.832 28.2231 153.019 28.084Q152.206 27.9375 151.298 27.9375Q149.884 27.9375 149.086 28.4575Q148.287 28.9702 148.287 29.8784ZM161.751 34.5L161.751 13.5015L165.86 12.8203L165.86 34.5L161.751 34.5ZM174.044 34.771Q172.375 34.771 171.085 34.1558Q169.796 33.5405 169.071 32.4565Q168.346 31.3726 168.346 29.959Q168.346 27.7251 170.038 26.4873Q171.737 25.2422 174.733 25.2422Q176.754 25.2422 178.564 25.8574L178.564 24.7295Q178.564 23.3599 177.721 22.686Q176.886 22.0049 175.26 22.0049Q174.279 22.0049 173.129 22.3125Q171.986 22.6128 170.485 23.2793L169.005 20.2397Q170.858 19.3975 172.55 18.9873Q174.242 18.5698 175.941 18.5698Q179.113 18.5698 180.863 20.0786Q182.614 21.5874 182.614 24.3486L182.614 34.5L178.564 34.5L178.564 33.394Q177.589 34.1118 176.476 34.4414Q175.37 34.771 174.044 34.771ZM172.257 29.8784Q172.257 30.772 173.034 31.2993Q173.81 31.8267 175.121 31.8267Q176.132 31.8267 176.996 31.5776Q177.86 31.3286 178.564 30.7939L178.564 28.5308Q177.802 28.2231 176.989 28.084Q176.176 27.9375 175.268 27.9375Q173.854 27.9375 173.056 28.4575Q172.257 28.9702 172.257 29.8784ZM185.721 34.5L185.721 18.8701L189.83 18.8701L189.83 20.6133Q190.585 19.5952 191.639 19.0605Q192.694 18.5186 194.005 18.5186Q195.155 18.5405 195.719 18.8555L195.719 22.4663Q195.265 22.2466 194.723 22.144Q194.181 22.0415 193.624 22.0415Q192.416 22.0415 191.42 22.6494Q190.431 23.25 189.83 24.3633L189.83 34.5L185.721 34.5Z" fill="rgb(0,0,0)" fill-rule="nonzero" />
		<path id="Vector 11" d="M205.004 30.7461L245.317 30.8575L245.308 33.8575L204.996 33.7461L205.004 30.7461ZM246.812 32.3575L246.812 44.5L243.812 44.5L243.812 32.3575L246.812 32.3575ZM205.004 42.8886L245.317 43L245.308 46L204.996 45.8886L205.004 42.8886ZM206.5 32.3575L206.5 44.5L203.5 44.5L203.5 32.3575L206.5 32.3575ZM226.656 1.5L226.656 26.3977L223.656 26.3977L223.656 1.5L226.656 1.5ZM203.558 31.8316L209.997 9.44038L212.88 10.2695L206.442 32.6607L203.558 31.8316ZM243.871 32.7721L237.432 10.3809L240.315 9.55178L246.754 31.943L243.871 32.7721ZM211.439 8.35492L217.878 8.35492L217.878 11.3549L211.439 11.3549L211.439 8.35492ZM232.435 8.35492L238.874 8.35492L238.874 11.3549L232.435 11.3549L232.435 8.35492ZM205.016 33.7262L204.996 33.7461C204.156 33.7438 203.498 33.082 203.5 32.242C203.502 31.402 204.164 30.7438 205.004 30.7461L205.024 30.7662L205.016 33.7262ZM245.297 30.8775L245.317 30.8575C246.157 30.8598 246.815 31.5217 246.812 32.3617C246.81 33.2017 246.148 33.8598 245.308 33.8575L245.288 33.8375L245.297 30.8775ZM243.833 32.3775L243.812 32.3575C243.812 31.5175 244.473 30.8575 245.312 30.8575C246.152 30.8575 246.812 31.5175 246.812 32.3575L246.792 32.3775L243.833 32.3775ZM246.792 44.48L246.812 44.5C246.812 45.34 246.152 46 245.312 46C244.473 46 243.812 45.34 243.812 44.5L243.833 44.48L246.792 44.48ZM205.016 45.8687L204.996 45.8886C204.156 45.8863 203.498 45.2245 203.5 44.3845C203.502 43.5445 204.164 42.8863 205.004 42.8886L205.024 42.9087L205.016 45.8687ZM245.297 43.02L245.317 43C246.157 43.0023 246.815 43.6642 246.812 44.5041C246.81 45.3441 246.148 46.0023 245.308 46L245.288 45.9799L245.297 43.02ZM203.52 32.3775L203.5 32.3575C203.5 31.5175 204.16 30.8575 205 30.8575C205.84 30.8575 206.5 31.5175 206.5 32.3575L206.48 32.3775L203.52 32.3775ZM206.48 44.48L206.5 44.5C206.5 45.34 205.84 46 205 46C204.16 46 203.5 45.34 203.5 44.5L203.52 44.48L206.48 44.48ZM223.676 1.52L223.656 1.5C223.656 0.66 224.316 0 225.156 0C225.996 0 226.656 0.66 226.656 1.5L226.636 1.52L223.676 1.52ZM225.156 24.2764L232.581 16.8517C233.175 16.2578 234.108 16.2578 234.702 16.8517C235.296 17.4457 235.296 18.3791 234.702 18.973L226.217 27.4583C225.623 28.0523 224.69 28.0523 224.096 27.4583L215.61 18.9731C215.016 18.3791 215.016 17.4457 215.61 16.8517C216.204 16.2578 217.138 16.2578 217.732 16.8517L225.156 24.2764ZM206.428 32.6359L206.442 32.6607C206.209 33.4679 205.393 33.9198 204.585 33.6877C203.778 33.4556 203.326 32.6389 203.558 31.8316L203.583 31.8179L206.428 32.6359ZM210.011 9.46513L209.997 9.44038C210.229 8.6331 211.046 8.1812 211.853 8.41334C212.661 8.64548 213.113 9.46218 212.88 10.2695L212.856 10.2832L210.011 9.46513ZM246.729 31.9293L246.754 31.943C246.986 32.7503 246.534 33.567 245.727 33.7991C244.92 34.0312 244.103 33.5793 243.871 32.7721L243.885 32.7473L246.729 31.9293ZM237.457 10.3946L237.432 10.3809C237.2 9.57357 237.652 8.75688 238.459 8.52474C239.266 8.29259 240.083 8.7445 240.315 9.55178L240.302 9.57653L237.457 10.3946ZM211.459 11.3349L211.439 11.3549C210.599 11.3549 209.939 10.6949 209.939 9.85492C209.939 9.01492 210.599 8.35492 211.439 8.35492L211.459 8.37492L211.459 11.3349ZM217.858 8.37492L217.878 8.35492C218.718 8.35492 219.378 9.01492 219.378 9.85492C219.378 10.6949 218.718 11.3549 217.878 11.3549L217.858 11.3349L217.858 8.37492ZM232.455 11.3349L232.435 11.3549C231.595 11.3549 230.935 10.6949 230.935 9.85492C230.935 9.01492 231.595 8.35492 232.435 8.35492L232.455 8.37492L232.455 11.3349ZM238.854 8.37492L238.874 8.35492C239.714 8.35492 240.374 9.01492 240.374 9.85492C240.374 10.6949 239.714 11.3549 238.874 11.3549L238.854 11.3349L238.854 8.37492Z" fill="rgb(0,0,0)" fill-rule="nonzero" />
	</g>
</svg>
