<svg viewBox="0 0 43 18" xmlns="http://www.w3.org/2000/svg" xmlns:xlink="http://www.w3.org/1999/xlink" width="43.000000" height="18.000000" fill="none" customFrame="#000000">
	<path id="" d="M0.90918 14L0.90918 3.78027L4.20068 3.78027Q5.29102 3.78027 6.0874 4.15967Q6.88721 4.53564 7.32812 5.23633Q7.76904 5.93701 7.76904 6.88721Q7.76904 7.88184 7.28711 8.66797Q6.80518 9.45068 5.97803 9.79932L7.90918 14L5.62939 14L3.9751 10.1377L2.99756 10.1377L2.99756 14L0.90918 14ZM2.99756 8.31592L4.20068 8.31592Q4.90137 8.31592 5.28418 7.96729Q5.67041 7.61523 5.67041 6.98633Q5.67041 6.32666 5.28418 5.96436Q4.90137 5.59863 4.20068 5.59863L2.99756 5.59863L2.99756 8.31592ZM12.6007 14.1401Q11.5787 14.1401 10.8199 13.7573Q10.0646 13.3711 9.65098 12.6772Q9.24082 11.9834 9.24082 11.0605L9.24082 9.23877Q9.24082 8.31592 9.65098 7.62549Q10.0646 6.93164 10.8199 6.54541Q11.5787 6.15918 12.6007 6.15918Q13.6363 6.15918 14.3849 6.54541Q15.1334 6.93164 15.547 7.62549Q15.9605 8.31592 15.9605 9.23877L15.9605 11.0605Q15.9605 11.9834 15.547 12.6772Q15.1334 13.3711 14.3849 13.7573Q13.6363 14.1401 12.6007 14.1401ZM12.6007 12.3184Q13.2159 12.3184 13.5372 11.9902Q13.8585 11.6621 13.8585 11.0605L13.8585 9.23877Q13.8585 8.62354 13.5372 8.30225Q13.2159 7.98096 12.6007 7.98096Q11.9991 7.98096 11.6676 8.30225Q11.3395 8.62354 11.3395 9.23877L11.3395 11.0605Q11.3395 11.6621 11.6676 11.9902Q11.9991 12.3184 12.6007 12.3184ZM21.8415 14Q20.6623 14 19.989 13.3301Q19.319 12.6567 19.319 11.481L19.319 8.18945L17.2888 8.18945L17.2888 6.29932L19.319 6.29932L19.319 4.12891L21.4211 4.12891L21.4211 6.29932L24.2888 6.29932L24.2888 8.18945L21.4211 8.18945L21.4211 11.481Q21.4211 12.1099 22.05 12.1099L24.1486 12.1099L24.1486 14L21.8415 14ZM28.4061 14.1401Q27.2439 14.1401 26.5638 13.5112Q25.887 12.8789 25.887 11.8022Q25.887 10.6401 26.6902 10.0181Q27.4969 9.39258 29.0076 9.39258L30.6038 9.39258L30.6038 8.81836Q30.6038 8.37061 30.2894 8.10742Q29.9749 7.84082 29.4417 7.84082Q28.9529 7.84082 28.6282 8.06641Q28.3069 8.28857 28.2386 8.68164L26.2083 8.68164Q26.3348 7.51953 27.2234 6.83936Q28.1121 6.15918 29.5135 6.15918Q30.9832 6.15918 31.8411 6.88037Q32.7024 7.60156 32.7024 8.81836L32.7024 14L30.6756 14L30.6756 12.7388L30.3372 12.7388L30.6893 12.25Q30.6893 13.1182 30.0638 13.6309Q29.4417 14.1401 28.4061 14.1401ZM29.1888 12.5986Q29.8074 12.5986 30.2039 12.2705Q30.6038 11.9424 30.6038 11.4092L30.6038 10.5854L29.0486 10.5854Q28.5735 10.5854 28.2796 10.8589Q27.9856 11.1289 27.9856 11.5767Q27.9856 12.0552 28.3069 12.3286Q28.6316 12.5986 29.1888 12.5986ZM37.4794 14.1401Q36.5258 14.1401 35.8114 13.8394Q35.0971 13.5386 34.6972 13.0088Q34.3007 12.4756 34.3007 11.7612L36.3993 11.7612Q36.3993 12.0962 36.7001 12.3013Q37.0009 12.5029 37.4794 12.5029L38.0946 12.5029Q38.6688 12.5029 38.9696 12.2944Q39.2704 12.0825 39.2704 11.7031Q39.2704 11.3545 39.0038 11.1665Q38.7372 10.9751 38.1767 10.9067L37.2812 10.7939Q35.8388 10.6128 35.1791 10.0967Q34.5229 9.57715 34.5229 8.51074Q34.5229 7.39307 35.2919 6.77783Q36.0644 6.15918 37.5478 6.15918L38.081 6.15918Q39.4926 6.15918 40.3334 6.77783Q41.1742 7.39307 41.1742 8.42871L39.0756 8.42871Q39.0756 8.14844 38.8022 7.97412Q38.5287 7.79639 38.081 7.79639L37.5478 7.79639Q37.0316 7.79639 36.7924 7.97412Q36.5531 8.14844 36.5531 8.49707Q36.5531 8.81836 36.7685 8.98926Q36.9872 9.15674 37.4623 9.2251L38.4296 9.35156Q39.8856 9.53271 40.5932 10.0796Q41.3007 10.6265 41.3007 11.7031Q41.3007 12.8789 40.4872 13.5112Q39.6772 14.1401 38.0946 14.1401L37.4794 14.1401Z" fill="rgb(0,0,0)" fill-rule="nonzero" />
</svg>
