<svg viewBox="0 0 135.5 46.5" xmlns="http://www.w3.org/2000/svg" xmlns:xlink="http://www.w3.org/1999/xlink" width="135.500000" height="46.500000" fill="none" customFrame="#000000">
	<g id="Group 1">
		<path id="" d="M1.9043 31L1.9043 10.0015L12.1436 10.0015Q14.2822 10.0015 15.9155 10.8291Q17.5562 11.6494 18.4717 13.1216Q19.3945 14.5864 19.3945 16.5054Q19.3945 18.5049 18.2739 20.0503Q17.1606 21.5884 15.3076 22.3354L19.9365 31L15.0879 31L10.979 22.958L6.24756 22.958L6.24756 31L1.9043 31ZM6.24756 19.3984L11.7627 19.3984Q13.2275 19.3984 14.1138 18.6221Q15 17.8384 15 16.564Q15 15.3042 14.1138 14.5278Q13.2275 13.7441 11.7627 13.7441L6.24756 13.7441L6.24756 19.3984ZM28.7132 31.3003Q26.3694 31.3003 24.4724 30.2236Q22.5828 29.147 21.4768 27.3159Q20.3709 25.4775 20.3709 23.1997Q20.3709 20.9146 21.4695 19.0762Q22.5755 17.2378 24.4724 16.1611Q26.3694 15.0771 28.7132 15.0771Q31.0642 15.0771 32.9539 16.1611Q34.8435 17.2378 35.9495 19.0762Q37.0628 20.9146 37.0628 23.1997Q37.0628 25.4775 35.9568 27.3159Q34.8509 29.147 32.9539 30.2236Q31.0642 31.3003 28.7132 31.3003ZM28.7132 27.7334Q29.9436 27.7334 30.9251 27.1328Q31.9065 26.5249 32.4778 25.4922Q33.0491 24.4595 33.0491 23.1851Q33.0491 21.9106 32.4705 20.8853Q31.8919 19.8599 30.9104 19.252Q29.929 18.644 28.7205 18.644Q27.5047 18.644 26.5159 19.252Q25.5345 19.8599 24.9558 20.8853Q24.3846 21.9106 24.3846 23.1851Q24.3846 24.4595 24.9558 25.4922Q25.5345 26.5249 26.5159 27.1328Q27.5047 27.7334 28.7132 27.7334ZM46.3434 31.2344Q43.7507 31.2344 42.4103 30.0625Q41.07 28.8833 41.07 26.5981L41.07 18.8052L37.8547 18.8052L37.8547 15.3701L41.07 15.3701L41.07 11.3638L45.1716 10.4556L45.1716 15.3701L49.632 15.3701L49.632 18.8052L45.1716 18.8052L45.1716 25.7485Q45.1716 26.8398 45.655 27.3013Q46.1457 27.7627 47.3322 27.7627Q47.9401 27.7627 48.4308 27.6821Q48.9289 27.6016 49.5221 27.4185L49.5221 30.7803Q48.8849 30.9927 47.9548 31.1099Q47.0246 31.2344 46.3434 31.2344ZM56.6245 31.271Q54.9546 31.271 53.6655 30.6558Q52.3764 30.0405 51.6513 28.9565Q50.9262 27.8726 50.9262 26.459Q50.9262 24.2251 52.6181 22.9873Q54.3173 21.7422 57.313 21.7422Q59.3344 21.7422 61.1435 22.3574L61.1435 21.2295Q61.1435 19.8599 60.3012 19.186Q59.4663 18.5049 57.8403 18.5049Q56.8588 18.5049 55.7089 18.8125Q54.5664 19.1128 53.0649 19.7793L51.5854 16.7397Q53.4384 15.8975 55.1303 15.4873Q56.8222 15.0698 58.5214 15.0698Q61.6928 15.0698 63.4433 16.5786Q65.1938 18.0874 65.1938 20.8486L65.1938 31L61.1435 31L61.1435 29.894Q60.1694 30.6118 59.0561 30.9414Q57.9502 31.271 56.6245 31.271ZM54.8374 26.3784Q54.8374 27.272 55.6137 27.7993Q56.3901 28.3267 57.7011 28.3267Q58.7119 28.3267 59.5761 28.0776Q60.4404 27.8286 61.1435 27.2939L61.1435 25.0308Q60.3818 24.7231 59.5688 24.584Q58.7558 24.4375 57.8476 24.4375Q56.434 24.4375 55.6357 24.9575Q54.8374 25.4702 54.8374 26.3784ZM74.1534 31.3003Q72.0147 31.3003 70.1763 30.751Q68.338 30.2017 66.983 29.1543L69.0191 26.4004Q70.3961 27.3232 71.6339 27.7627Q72.8716 28.2021 74.1021 28.2021Q75.4791 28.2021 76.3067 27.7407Q77.1343 27.2793 77.1343 26.5322Q77.1343 25.9243 76.6583 25.5654Q76.1895 25.1992 75.1788 25.0601L72.1832 24.6133Q69.8467 24.2617 68.6456 23.1045Q67.4444 21.9399 67.4444 20.0503Q67.4444 18.5342 68.2354 17.4282Q69.0338 16.3149 70.4913 15.7144Q71.9488 15.1138 73.941 15.1138Q75.6548 15.1138 77.2881 15.5972Q78.9214 16.0732 80.3643 17.0474L78.3795 19.7061Q77.0977 18.9224 75.9258 18.5635Q74.754 18.1973 73.5674 18.1973Q72.4542 18.1973 71.773 18.6221Q71.0919 19.0396 71.0919 19.7207Q71.0919 20.3579 71.5826 20.7095Q72.0733 21.061 73.2159 21.2295L76.2115 21.6763Q78.5259 21.9985 79.7564 23.1631Q80.9942 24.3203 80.9942 26.1514Q80.9942 27.6382 80.0933 28.7954Q79.1998 29.9526 77.6617 30.6265Q76.1309 31.3003 74.1534 31.3003Z" fill="rgb(255,255,255)" fill-rule="nonzero" />
		<path id="Vector 11" d="M96.6512 17C100.324 17 103.302 19.9102 103.302 23.5C103.302 27.0898 100.324 30 96.6512 30C92.9778 30 90 27.0898 90 23.5C90 19.9102 92.9778 17 96.6512 17ZM127.349 2C131.022 2 134 4.91016 134 8.5C134 12.0898 131.022 15 127.349 15C123.676 15 120.698 12.0898 120.698 8.5C120.698 4.91016 123.676 2 127.349 2ZM127.349 17C131.022 17 134 19.9102 134 23.5C134 27.0898 131.022 30 127.349 30C123.676 30 120.698 27.0898 120.698 23.5C120.698 19.9102 123.676 17 127.349 17ZM127.349 32C131.022 32 134 34.9102 134 38.5C134 42.0898 131.022 45 127.349 45C123.676 45 120.698 42.0898 120.698 38.5C120.698 34.9102 123.676 32 127.349 32ZM120.718 24.0078L102.279 24M121.721 11.9657L103.302 24.0077M121.721 35.0343L103.29 24" fill-rule="evenodd" stroke="rgb(255,255,255)" stroke-width="3" />
	</g>
</svg>
