<svg viewBox="0 0 124.505 43.0109" xmlns="http://www.w3.org/2000/svg" xmlns:xlink="http://www.w3.org/1999/xlink" width="124.505493" height="43.010887" fill="none" customFrame="#000000">
	<g id="Stack">
		<path id="" d="M9.375 33.8057Q6.84814 33.8057 4.4165 32.8536Q1.98486 31.9014 0.0952148 30.1876L2.59277 27.0528Q4.42383 28.6568 6.1084 29.3892Q7.79297 30.1216 9.68262 30.1216Q11.0083 30.1216 11.9678 29.7994Q12.9346 29.4771 13.4619 28.8765Q13.9893 28.2759 13.9893 27.4849Q13.9893 26.4009 13.1982 25.815Q12.4072 25.2217 10.5322 24.9068L6.36475 24.189Q3.68408 23.7203 2.28516 22.2847Q0.88623 20.8419 0.88623 18.5567Q0.88623 16.6011 1.88965 15.1802Q2.90039 13.752 4.75342 12.983Q6.61377 12.2139 9.14795 12.2139Q11.4551 12.2139 13.7549 12.9903Q16.062 13.7593 17.8125 15.1509L15.4834 18.3956Q12.1875 15.8687 8.8623 15.8687Q7.68311 15.8687 6.81152 16.1617Q5.93994 16.4547 5.47119 16.982Q5.00244 17.502 5.00244 18.2271Q5.00244 19.2012 5.69824 19.7286Q6.40137 20.2486 7.99805 20.5196L11.9604 21.1715Q15.1099 21.6768 16.6772 23.1636Q18.252 24.6431 18.252 27.0821Q18.252 29.1256 17.168 30.6417Q16.084 32.1505 14.0845 32.9781Q12.0923 33.8057 9.375 33.8057ZM27.5034 33.7398Q24.9107 33.7398 23.5703 32.5679Q22.23 31.3887 22.23 29.1036L22.23 21.3106L19.0147 21.3106L19.0147 17.8756L22.23 17.8756L22.23 13.8692L26.3316 12.961L26.3316 17.8756L30.792 17.8756L30.792 21.3106L26.3316 21.3106L26.3316 28.254Q26.3316 29.3453 26.815 29.8067Q27.3057 30.2681 28.4922 30.2681Q29.1001 30.2681 29.5908 30.1876Q30.0889 30.107 30.6821 29.9239L30.6821 33.2857Q30.0449 33.4981 29.1148 33.6153Q28.1846 33.7398 27.5034 33.7398ZM37.7845 33.7764Q36.1145 33.7764 34.8255 33.1612Q33.5364 32.546 32.8113 31.462Q32.0862 30.378 32.0862 28.9644Q32.0862 26.7305 33.7781 25.4927Q35.4773 24.2476 38.4729 24.2476Q40.4944 24.2476 42.3035 24.8629L42.3035 23.7349Q42.3035 22.3653 41.4612 21.6915Q40.6263 21.0103 39.0003 21.0103Q38.0188 21.0103 36.8689 21.3179Q35.7264 21.6182 34.2249 22.2847L32.7454 19.2452Q34.5984 18.4029 36.2903 17.9927Q37.9822 17.5753 39.6814 17.5753Q42.8528 17.5753 44.6033 19.084Q46.3538 20.5928 46.3538 23.3541L46.3538 33.5054L42.3035 33.5054L42.3035 32.3995Q41.3294 33.1173 40.2161 33.4468Q39.1102 33.7764 37.7845 33.7764ZM35.9974 28.8839Q35.9974 29.7774 36.7737 30.3048Q37.5501 30.8321 38.8611 30.8321Q39.8719 30.8321 40.7361 30.5831Q41.6004 30.334 42.3035 29.7994L42.3035 27.5362Q41.5418 27.2286 40.7288 27.0894Q39.9158 26.9429 39.0076 26.9429Q37.594 26.9429 36.7957 27.463Q35.9974 27.9757 35.9974 28.8839ZM56.9394 33.7984Q54.6395 33.7984 52.7792 32.7291Q50.9188 31.6597 49.8349 29.8214Q48.7509 27.9757 48.7509 25.6978Q48.7509 23.398 49.8349 21.567Q50.9188 19.7359 52.7792 18.6592Q54.6395 17.5753 56.9394 17.5753Q58.7997 17.5753 60.4989 18.3004Q62.2055 19.0181 63.414 20.3511L60.8944 23.0245Q60.0302 22.065 59.078 21.6109Q58.1332 21.1568 57.0272 21.1568Q55.8407 21.1568 54.8886 21.7501Q53.9364 22.3433 53.3798 23.376Q52.8305 24.4014 52.8305 25.6978Q52.8305 26.9722 53.3871 28.0049Q53.9511 29.0303 54.9325 29.6236Q55.914 30.2169 57.1298 30.2169Q58.1845 30.2169 59.0927 29.7847Q60.0082 29.3453 60.8432 28.459L63.2895 31.0299Q62.0956 32.3409 60.4184 33.0733Q58.7484 33.7984 56.9394 33.7984ZM65.4213 33.5054L65.4213 12.5069L69.5302 11.8257L69.5302 24.4381L76.2978 17.8756L80.9487 17.8756L73.5585 25.0386L81.4028 33.5054L76.144 33.5054L69.5302 26.3716L69.5302 33.5054L65.4213 33.5054Z" fill="rgb(255,255,255)" fill-rule="nonzero" />
		<path id="Vector 12" d="M106 1.50544L89 12.5055M89.0001 12.5054L106 23.5054M106 23.5054L123 12.5054M106 1.50541L123 12.5054M89.0001 21.5055L106 32.5055M106 32.5055L123 21.5054M89.0001 30.5055L106 41.5055M106 41.5055L123 30.5054" stroke="rgb(255,255,255)" stroke-linecap="round" stroke-width="3" />
	</g>
</svg>
