<svg viewBox="0 0 124.505 43.0109" xmlns="http://www.w3.org/2000/svg" xmlns:xlink="http://www.w3.org/1999/xlink" width="124.505493" height="43.010887" fill="none" customFrame="#000000">
	<g id="Stack">
		<path id="" d="M9.375 33.8057C7.69043 33.8057 6.0376 33.4883 4.4165 32.8536C2.79541 32.2188 1.35498 31.3301 0.0952148 30.1876L2.59277 27.0528C3.81348 28.1221 4.98535 28.9009 6.1084 29.3892C7.23145 29.8775 8.42285 30.1216 9.68262 30.1216C10.5664 30.1216 11.3281 30.0142 11.9678 29.7994C12.6123 29.5845 13.1104 29.2769 13.4619 28.8765C13.8135 28.4761 13.9893 28.0123 13.9893 27.4849C13.9893 26.7623 13.7256 26.2056 13.1982 25.815C12.6709 25.4195 11.7822 25.1168 10.5322 24.9068L6.36475 24.189C4.57764 23.8765 3.21777 23.2418 2.28516 22.2847C1.35254 21.3228 0.88623 20.0801 0.88623 18.5567C0.88623 17.253 1.2207 16.1275 1.88965 15.1802C2.56348 14.2281 3.51807 13.4957 4.75342 12.983C5.99365 12.4703 7.4585 12.2139 9.14795 12.2139C10.686 12.2139 12.2217 12.4727 13.7549 12.9903C15.293 13.503 16.6455 14.2232 17.8125 15.1509L15.4834 18.3956C13.2861 16.711 11.0791 15.8687 8.8623 15.8687C8.07617 15.8687 7.39258 15.9664 6.81152 16.1617C6.23047 16.357 5.78369 16.6304 5.47119 16.982C5.15869 17.3287 5.00244 17.7437 5.00244 18.2271C5.00244 18.8765 5.23438 19.377 5.69824 19.7286C6.16699 20.0753 6.93359 20.3389 7.99805 20.5196L11.9604 21.1715C14.0601 21.5084 15.6323 22.1724 16.6772 23.1636C17.7271 24.15 18.252 25.4561 18.252 27.0821C18.252 28.4444 17.8906 29.6309 17.168 30.6417C16.4453 31.6475 15.4175 32.4263 14.0845 32.9781C12.7563 33.5299 11.1865 33.8057 9.375 33.8057ZM27.5034 33.7398C25.7749 33.7398 24.4639 33.3492 23.5703 32.5679C22.6768 31.7818 22.23 30.627 22.23 29.1036L22.23 21.3106L19.0147 21.3106L19.0147 17.8756L22.23 17.8756L22.23 13.8692L26.3316 12.961L26.3316 17.8756L30.792 17.8756L30.792 21.3106L26.3316 21.3106L26.3316 28.254C26.3316 28.9815 26.4927 29.4991 26.815 29.8067C27.1421 30.1143 27.7012 30.2681 28.4922 30.2681C28.8975 30.2681 29.2637 30.2413 29.5908 30.1876C29.9229 30.1339 30.2866 30.046 30.6821 29.9239L30.6821 33.2857C30.2573 33.4273 29.7349 33.5372 29.1148 33.6153C28.4946 33.6983 27.9575 33.7398 27.5034 33.7398ZM37.7845 33.7764C36.6712 33.7764 35.6849 33.5714 34.8255 33.1612C33.9661 32.751 33.2947 32.1846 32.8113 31.462C32.3279 30.7393 32.0862 29.9068 32.0862 28.9644C32.0862 27.4752 32.6502 26.3179 33.7781 25.4927C34.9109 24.6627 36.4759 24.2476 38.4729 24.2476C39.8206 24.2476 41.0975 24.4527 42.3035 24.8629L42.3035 23.7349C42.3035 22.8218 42.0228 22.1407 41.4612 21.6915C40.9046 21.2374 40.0843 21.0103 39.0003 21.0103C38.346 21.0103 37.6355 21.1129 36.8689 21.3179C36.1072 21.5181 35.2259 21.8404 34.2249 22.2847L32.7454 19.2452C33.9808 18.6837 35.1624 18.2662 36.2903 17.9927C37.4183 17.7144 38.5486 17.5753 39.6814 17.5753C41.7957 17.5753 43.4363 18.0782 44.6033 19.084C45.7703 20.0899 46.3538 21.5132 46.3538 23.3541L46.3538 33.5054L42.3035 33.5054L42.3035 32.3995C41.6541 32.878 40.9583 33.2271 40.2161 33.4468C39.4788 33.6666 38.6683 33.7764 37.7845 33.7764ZM35.9974 28.8839C35.9974 29.4796 36.2561 29.9532 36.7737 30.3048C37.2913 30.6563 37.9871 30.8321 38.8611 30.8321C39.535 30.8321 40.16 30.7491 40.7361 30.5831C41.3123 30.4171 41.8348 30.1558 42.3035 29.7994L42.3035 27.5362C41.7957 27.3311 41.2708 27.1822 40.7288 27.0894C40.1868 26.9918 39.6131 26.9429 39.0076 26.9429C38.0652 26.9429 37.3279 27.1163 36.7957 27.463C36.2635 27.8048 35.9974 28.2784 35.9974 28.8839ZM56.9394 33.7984C55.4062 33.7984 54.0194 33.442 52.7792 32.7291C51.539 32.0162 50.5575 31.0469 49.8349 29.8214C49.1122 28.5909 48.7509 27.2164 48.7509 25.6978C48.7509 24.1646 49.1122 22.7877 49.8349 21.567C50.5575 20.3463 51.539 19.377 52.7792 18.6592C54.0194 17.9366 55.4062 17.5753 56.9394 17.5753C58.1796 17.5753 59.3661 17.817 60.4989 18.3004C61.6366 18.7789 62.6083 19.4625 63.414 20.3511L60.8944 23.0245C60.3183 22.3848 59.7128 21.9136 59.078 21.6109C58.4481 21.3082 57.7645 21.1568 57.0272 21.1568C56.2362 21.1568 55.5233 21.3546 54.8886 21.7501C54.2538 22.1456 53.7509 22.6876 53.3798 23.376C53.0136 24.0596 52.8305 24.8336 52.8305 25.6978C52.8305 26.5474 53.016 27.3165 53.3871 28.0049C53.7631 28.6885 54.2782 29.2281 54.9325 29.6236C55.5868 30.0191 56.3192 30.2169 57.1298 30.2169C57.8329 30.2169 58.4872 30.0728 59.0927 29.7847C59.703 29.4918 60.2865 29.0499 60.8432 28.459L63.2895 31.0299C62.4936 31.9039 61.5365 32.585 60.4184 33.0733C59.3051 33.5567 58.1454 33.7984 56.9394 33.7984ZM65.4213 33.5054L65.4213 12.5069L69.5302 11.8257L69.5302 24.4381L76.2978 17.8756L80.9487 17.8756L73.5585 25.0386L81.4028 33.5054L76.144 33.5054L69.5302 26.3716L69.5302 33.5054L65.4213 33.5054Z" fill="rgb(0,0,0)" fill-rule="nonzero" />
		<path id="Vector 12" d="M106 1.50544L89 12.5055M89.0001 12.5054L106 23.5054M106 23.5054L123 12.5054M106 1.50541L123 12.5054M89.0001 21.5055L106 32.5055M106 32.5055L123 21.5054M89.0001 30.5055L106 41.5055M106 41.5055L123 30.5054" stroke="rgb(0,0,0)" stroke-linecap="round" stroke-width="3" />
	</g>
</svg>
